<svg width="24" height="24" viewBox="0 0 24 24" fill="none" xmlns="http://www.w3.org/2000/svg">
<path d="M11.6777 7.1228L12.5569 6.24335L11.5627 5.24908L10.6832 6.12836C10.306 5.87695 9.8783 5.6955 9.41888 5.60303V4.36102H8.01263V5.60303C7.55304 5.6955 7.12549 5.87695 6.74811 6.12836L5.86884 5.24908L4.87439 6.24335L5.75385 7.1228C5.50244 7.5 5.3208 7.92773 5.22833 8.38733H3.98633V9.79358H5.22833C5.32098 10.253 5.50244 10.6807 5.75385 11.0579L4.87439 11.9374L5.86884 12.9316L6.74811 12.0524C7.12549 12.3038 7.55304 12.4852 8.01263 12.5777V13.8197H9.41888V12.5777C9.87848 12.4852 10.306 12.3038 10.6834 12.0524L11.5627 12.9316L12.5571 11.9374L11.6777 11.0579C11.9291 10.6807 12.1105 10.253 12.2032 9.79358H13.4452V8.38733H12.203C12.1105 7.92773 11.9291 7.50018 11.6777 7.1228ZM8.71576 11.2416C7.5296 11.2416 6.56445 10.2766 6.56445 9.09045C6.56445 7.90411 7.5296 6.93915 8.71576 6.93915C9.90192 6.93915 10.8669 7.90411 10.8669 9.09045C10.8669 10.2766 9.90192 11.2416 8.71576 11.2416Z" fill="black"/>
<path d="M17.4322 8.51917V1.54688H0V16.6339H2.75757L4.92517 18.8016L7.09296 16.6339H10.7899V20.2462H16.907L19.0748 22.4138L21.2424 20.2462H24V8.51917H17.4322ZM6.5105 15.2276L4.92535 16.8129L3.34003 15.2276H1.40625V2.95312H16.0259V15.2276H6.5105ZM22.5938 18.8399H20.66L19.0748 20.425L17.4895 18.8399H12.1961V16.6339H17.4322V9.92542H22.5938V18.8399Z" fill="black"/>
</svg>
