<svg width="20" height="20" viewBox="0 0 20 20" fill="none" xmlns="http://www.w3.org/2000/svg">
<path fill-rule="evenodd" clip-rule="evenodd" d="M16 17H4C3.45 17 3 16.55 3 16V4C3 3.45 3.45 3 4 3H16C16.55 3 17 3.45 17 4V16C17 16.55 16.55 17 16 17ZM17 1H3C1.9 1 1 1.9 1 3V17C1 18.1 1.9 19 3 19H17C18.1 19 19 18.1 19 17V3C19 1.9 18.1 1 17 1Z" fill="#8C8C8C"/>
<mask id="mask0" mask-type="alpha" maskUnits="userSpaceOnUse" x="1" y="1" width="18" height="18">
<path fill-rule="evenodd" clip-rule="evenodd" d="M16 17H4C3.45 17 3 16.55 3 16V4C3 3.45 3.45 3 4 3H16C16.55 3 17 3.45 17 4V16C17 16.55 16.55 17 16 17ZM17 1H3C1.9 1 1 1.9 1 3V17C1 18.1 1.9 19 3 19H17C18.1 19 19 18.1 19 17V3C19 1.9 18.1 1 17 1Z" fill="white"/>
</mask>
<g mask="url(#mask0)">
</g>
</svg>
