<svg width="24" height="24" viewBox="0 0 24 24" fill="none" xmlns="http://www.w3.org/2000/svg">
<path d="M20.25 3H0.75V18H20.25V3ZM18.75 16.5H2.25V4.5H18.75V16.5Z" fill="black"/>
<path d="M21.75 6.75V19.5H4.5V21H23.25V6.75H21.75Z" fill="black"/>
<path d="M10.5 14.178C12.361 14.178 13.875 12.531 13.875 10.506C13.875 8.481 12.361 6.834 10.5 6.834C8.639 6.834 7.125 8.481 7.125 10.506C7.125 12.531 8.639 14.178 10.5 14.178ZM10.5 8.335C11.534 8.335 12.375 9.309 12.375 10.507C12.375 11.705 11.534 12.679 10.5 12.679C9.466 12.679 8.625 11.705 8.625 10.507C8.625 9.309 9.466 8.335 10.5 8.335Z" fill="black"/>
<path d="M3.75 6.375H5.25V14.625H3.75V6.375Z" fill="black"/>
<path d="M15.75 6.375H17.25V14.625H15.75V6.375Z" fill="black"/>
</svg>
