<svg width="36" height="35" viewBox="0 0 36 35" fill="none" xmlns="http://www.w3.org/2000/svg">
<path d="M12.5396 3.00781H4.95166C4.34668 3.00781 3.85791 3.49658 3.85791 4.10156V11.7578C3.85791 12.0586 4.104 12.3047 4.40479 12.3047H6.04541C6.34619 12.3047 6.59229 12.0586 6.59229 11.7578V5.74219H12.5396C12.8403 5.74219 13.0864 5.49609 13.0864 5.19531V3.55469C13.0864 3.25391 12.8403 3.00781 12.5396 3.00781ZM32.2954 22.6953H30.6548C30.354 22.6953 30.1079 22.9414 30.1079 23.2422V29.2578H24.1606C23.8599 29.2578 23.6138 29.5039 23.6138 29.8047V31.4453C23.6138 31.7461 23.8599 31.9922 24.1606 31.9922H31.7485C32.3535 31.9922 32.8423 31.5034 32.8423 30.8984V23.2422C32.8423 22.9414 32.5962 22.6953 32.2954 22.6953ZM12.5396 29.2578H6.59229V23.2422C6.59229 22.9414 6.34619 22.6953 6.04541 22.6953H4.40479C4.104 22.6953 3.85791 22.9414 3.85791 23.2422V30.8984C3.85791 31.5034 4.34668 31.9922 4.95166 31.9922H12.5396C12.8403 31.9922 13.0864 31.7461 13.0864 31.4453V29.8047C13.0864 29.5039 12.8403 29.2578 12.5396 29.2578ZM31.7485 3.00781H24.1606C23.8599 3.00781 23.6138 3.25391 23.6138 3.55469V5.19531C23.6138 5.49609 23.8599 5.74219 24.1606 5.74219H30.1079V11.7578C30.1079 12.0586 30.354 12.3047 30.6548 12.3047H32.2954C32.5962 12.3047 32.8423 12.0586 32.8423 11.7578V4.10156C32.8423 3.49658 32.3535 3.00781 31.7485 3.00781Z" fill="white"/>
</svg>
