<svg width="16" height="16" viewBox="0 0 16 16" fill="none" xmlns="http://www.w3.org/2000/svg">
<path d="M14.722 7.597C13.2407 4.47668 11.0017 2.90637 8.00009 2.90637C4.99696 2.90637 2.75947 4.47668 1.27822 7.59856C1.2188 7.72437 1.18799 7.86177 1.18799 8.0009C1.18799 8.14003 1.2188 8.27744 1.27822 8.40325C2.75947 11.5236 4.99853 13.0939 8.00009 13.0939C11.0032 13.0939 13.2407 11.5236 14.722 8.40168C14.8423 8.14856 14.8423 7.85481 14.722 7.597ZM8.00009 11.9689C5.47978 11.9689 3.63447 10.6907 2.3329 8.00012C3.63447 5.3095 5.47978 4.03137 8.00009 4.03137C10.5204 4.03137 12.3657 5.3095 13.6673 8.00012C12.3673 10.6907 10.522 11.9689 8.00009 11.9689ZM7.93759 5.25012C6.41884 5.25012 5.18759 6.48137 5.18759 8.00012C5.18759 9.51887 6.41884 10.7501 7.93759 10.7501C9.45634 10.7501 10.6876 9.51887 10.6876 8.00012C10.6876 6.48137 9.45634 5.25012 7.93759 5.25012ZM7.93759 9.75012C6.9704 9.75012 6.18759 8.96731 6.18759 8.00012C6.18759 7.03293 6.9704 6.25012 7.93759 6.25012C8.90478 6.25012 9.68759 7.03293 9.68759 8.00012C9.68759 8.96731 8.90478 9.75012 7.93759 9.75012Z" fill="white"/>
</svg>
