<svg width="16" height="16" viewBox="0 0 16 16" fill="none" xmlns="http://www.w3.org/2000/svg">
<path d="M14.1855 4.45916C13.9838 3.97793 13.6929 3.54185 13.3292 3.17532C12.9653 2.80769 12.5362 2.51555 12.0652 2.31477C11.5769 2.10575 11.0531 1.99876 10.5243 2.00001C9.78243 2.00001 9.05862 2.20933 8.42961 2.60472C8.27913 2.6993 8.13618 2.80319 8.00074 2.91638C7.86531 2.80319 7.72236 2.6993 7.57188 2.60472C6.94287 2.20933 6.21906 2.00001 5.47719 2.00001C4.94299 2.00001 4.42533 2.10545 3.93627 2.31477C3.46377 2.51634 3.03791 2.80629 2.67224 3.17532C2.30807 3.54143 2.01717 3.97762 1.81601 4.45916C1.60684 4.95998 1.5 5.49182 1.5 6.03916C1.5 6.55549 1.60233 7.09352 1.80547 7.64086C1.97552 8.09827 2.2193 8.57273 2.53079 9.05185C3.02436 9.81006 3.70303 10.6008 4.54572 11.4025C5.94218 12.7313 7.32509 13.6492 7.38378 13.6864L7.74041 13.9221C7.89842 14.026 8.10157 14.026 8.25957 13.9221L8.61621 13.6864C8.6749 13.6476 10.0563 12.7313 11.4543 11.4025C12.297 10.6008 12.9756 9.81006 13.4692 9.05185C13.7807 8.57273 14.026 8.09827 14.1945 7.64086C14.3977 7.09352 14.5 6.55549 14.5 6.03916C14.5015 5.49182 14.3946 4.95998 14.1855 4.45916V4.45916ZM8.00074 12.6956C8.00074 12.6956 2.64365 9.15884 2.64365 6.03916C2.64365 4.45916 3.9122 3.17842 5.47719 3.17842C6.5772 3.17842 7.53125 3.81104 8.00074 4.73516C8.47024 3.81104 9.42429 3.17842 10.5243 3.17842C12.0893 3.17842 13.3578 4.45916 13.3578 6.03916C13.3578 9.15884 8.00074 12.6956 8.00074 12.6956Z" fill="#FF0066"/>
</svg>
