<svg width="16" height="16" viewBox="0 0 16 16" fill="none" xmlns="http://www.w3.org/2000/svg">
<path d="M8 1.33337C5.794 1.33337 4 3.12737 4 5.33337C4 7.31137 5.44467 8.95471 7.33333 9.27337V11.3334H5.33333V12.6667H7.33333V14.6587H8.66667V12.6667H10.6667V11.3334H8.66667V9.27337C10.5553 8.95404 12 7.31137 12 5.33337C12 3.12737 10.206 1.33337 8 1.33337ZM8 8.00004C6.52933 8.00004 5.33333 6.80404 5.33333 5.33337C5.33333 3.86271 6.52933 2.66671 8 2.66671C9.47067 2.66671 10.6667 3.86271 10.6667 5.33337C10.6667 6.80404 9.47067 8.00004 8 8.00004Z" fill="white"/>
</svg>
