<svg width="17" height="16" viewBox="0 0 17 16" fill="none" xmlns="http://www.w3.org/2000/svg">
<path d="M14.6001 4.84375H12.2938C12.5063 4.50938 12.6313 4.1125 12.6313 3.6875C12.6313 2.49844 11.6642 1.53125 10.4751 1.53125C9.82822 1.53125 9.24541 1.81875 8.8501 2.27187C8.45479 1.81875 7.87197 1.53125 7.2251 1.53125C6.03604 1.53125 5.06885 2.49844 5.06885 3.6875C5.06885 4.1125 5.19229 4.50938 5.40635 4.84375H3.1001C2.82354 4.84375 2.6001 5.06719 2.6001 5.34375V8.46875C2.6001 8.5375 2.65635 8.59375 2.7251 8.59375H3.3501V13.9688C3.3501 14.2453 3.57354 14.4688 3.8501 14.4688H13.8501C14.1267 14.4688 14.3501 14.2453 14.3501 13.9688V8.59375H14.9751C15.0438 8.59375 15.1001 8.5375 15.1001 8.46875V5.34375C15.1001 5.06719 14.8767 4.84375 14.6001 4.84375ZM9.38135 3.6875C9.38135 3.08438 9.87197 2.59375 10.4751 2.59375C11.0782 2.59375 11.5688 3.08438 11.5688 3.6875C11.5688 4.29062 11.0782 4.78125 10.4751 4.78125H9.38135V3.6875ZM7.2251 2.59375C7.82822 2.59375 8.31885 3.08438 8.31885 3.6875V4.78125H7.2251C6.62197 4.78125 6.13135 4.29062 6.13135 3.6875C6.13135 3.08438 6.62197 2.59375 7.2251 2.59375ZM3.6626 7.53125V5.90625H8.31885V7.53125H3.6626ZM4.4126 8.59375H8.31885V13.4062H4.4126V8.59375ZM13.2876 13.4062H9.38135V8.59375H13.2876V13.4062ZM14.0376 7.53125H9.38135V5.90625H14.0376V7.53125Z" fill="white"/>
</svg>
