<svg width="14" height="14" viewBox="0 0 14 14" fill="none" xmlns="http://www.w3.org/2000/svg">
<path d="M2.54975 11.2C2.58475 11.2 2.61975 11.1965 2.65475 11.1912L5.59825 10.675C5.63325 10.668 5.6665 10.6523 5.691 10.626L13.1093 3.20775C13.1255 3.19156 13.1383 3.17233 13.1471 3.15116C13.1559 3.12999 13.1604 3.10729 13.1604 3.08437C13.1604 3.06146 13.1559 3.03876 13.1471 3.01759C13.1383 2.99642 13.1255 2.97719 13.1093 2.961L10.2008 0.05075C10.1675 0.0175 10.1237 0 10.0765 0C10.0293 0 9.9855 0.0175 9.95225 0.05075L2.534 7.469C2.50775 7.49525 2.492 7.52675 2.485 7.56175L1.96875 10.5052C1.95173 10.599 1.95781 10.6955 1.98647 10.7864C2.01514 10.8772 2.06552 10.9597 2.13325 11.0267C2.24875 11.1388 2.394 11.2 2.54975 11.2ZM3.72925 8.148L10.0765 1.8025L11.3593 3.08525L5.012 9.43075L3.45625 9.7055L3.72925 8.148ZM13.44 12.67H0.56C0.25025 12.67 0 12.9202 0 13.23V13.86C0 13.937 0.063 14 0.14 14H13.86C13.937 14 14 13.937 14 13.86V13.23C14 12.9202 13.7498 12.67 13.44 12.67Z" fill="black"/>
</svg>
