<svg width="25" height="24" viewBox="0 0 25 24" fill="none" xmlns="http://www.w3.org/2000/svg">
<path d="M17.4542 11.048C18.0632 10.0101 18.3262 8.80528 18.2052 7.60797C18.0262 5.82397 17.0302 4.24697 15.4022 3.16797L14.2972 4.83397C15.4162 5.57597 16.0972 6.63297 16.2152 7.80797C16.2696 8.35407 16.2016 8.90543 16.0162 9.42195C15.8307 9.93847 15.5325 10.4072 15.1432 10.794L13.9512 11.986L15.5692 12.461C19.8012 13.701 19.8502 17.957 19.8502 18H21.8502C21.8502 16.211 20.8942 12.715 17.4542 11.048Z" fill="white"/>
<path d="M10.3501 12C12.5561 12 14.3501 10.206 14.3501 8C14.3501 5.794 12.5561 4 10.3501 4C8.1441 4 6.3501 5.794 6.3501 8C6.3501 10.206 8.1441 12 10.3501 12ZM10.3501 6C11.4531 6 12.3501 6.897 12.3501 8C12.3501 9.103 11.4531 10 10.3501 10C9.2471 10 8.3501 9.103 8.3501 8C8.3501 6.897 9.2471 6 10.3501 6ZM11.8501 13H8.8501C5.5411 13 2.8501 15.691 2.8501 19V20H4.8501V19C4.8501 16.794 6.6441 15 8.8501 15H11.8501C14.0561 15 15.8501 16.794 15.8501 19V20H17.8501V19C17.8501 15.691 15.1591 13 11.8501 13Z" fill="white"/>
</svg>
