<svg width="24" height="24" viewBox="0 0 24 24" fill="none" xmlns="http://www.w3.org/2000/svg">
<path d="M22.2473 7.87844C22.1971 6.81433 22.0228 6.08763 21.7679 5.45185C21.5092 4.78479 21.1033 4.18058 20.5789 3.68117C20.064 3.1726 19.4407 2.7789 18.7529 2.52782C18.0971 2.28085 17.3478 2.112 16.2504 2.06364C15.151 2.01483 14.7998 2.00323 12 2.00323C9.20027 2.00323 8.84903 2.01483 7.74956 2.06333C6.65228 2.112 5.90299 2.28101 5.24718 2.52812C4.55928 2.77905 3.93618 3.1726 3.42117 3.68117C2.89671 4.18044 2.4907 4.78464 2.23177 5.45169C1.97709 6.08763 1.80296 6.81433 1.75309 7.87829C1.70276 8.94454 1.6908 9.28505 1.6908 11.9999C1.6908 14.715 1.70276 15.0556 1.75309 16.1216C1.80312 17.1857 1.97741 17.9124 2.23225 18.5483C2.49101 19.2152 2.89687 19.8196 3.42133 20.3187C3.93618 20.8274 4.55943 21.2209 5.24734 21.4719C5.90299 21.7191 6.65238 21.8879 7.74976 21.9366C8.84932 21.9853 9.20047 21.9967 12.0002 21.9967C14.7999 21.9967 15.1511 21.9853 16.2506 21.9366C17.348 21.8879 18.0972 21.7191 18.7531 21.4719C20.1377 20.9526 21.2324 19.8911 21.7679 18.5483C22.0229 17.9124 22.1971 17.1857 22.2473 16.1216C22.2973 15.0554 22.3092 14.715 22.3092 12C22.3092 9.28505 22.2973 8.94454 22.2473 7.87844ZM20.3916 16.0398C20.3457 17.0145 20.1777 17.5438 20.0366 17.896C19.6898 18.768 18.9792 19.457 18.0801 19.7933C17.7168 19.9301 17.171 20.0931 16.1658 20.1374C15.079 20.1856 14.7529 20.1957 12 20.1957C9.247 20.1957 8.9211 20.1856 7.83407 20.1374C6.82905 20.0931 6.28324 19.9301 5.91982 19.7933C5.47212 19.633 5.06706 19.3774 4.73452 19.0454C4.39206 18.7229 4.12858 18.3303 3.96324 17.896C3.82214 17.5438 3.65413 17.0145 3.60836 16.0398C3.55881 14.9857 3.54827 14.6695 3.54827 12.0002C3.54827 9.33075 3.55881 9.01471 3.60836 7.96051C3.65429 6.98578 3.82214 6.45647 3.96324 6.10425C4.12858 5.66998 4.39221 5.27719 4.73452 4.95472C5.06706 4.62265 5.47212 4.36714 5.91997 4.20698C6.28324 4.06999 6.82905 3.90723 7.83427 3.86269C8.9212 3.81464 9.24729 3.80443 12 3.80443C14.7528 3.80443 15.0787 3.81464 16.1658 3.86285C17.171 3.90723 17.7167 4.07015 18.0801 4.20698C18.5278 4.36729 18.9328 4.62279 19.2654 4.95472C19.6078 5.27719 19.8713 5.66998 20.0364 6.10425C20.1777 6.45647 20.3457 6.98578 20.3916 7.96051C20.4411 9.01456 20.4516 9.33075 20.4516 12C20.4516 14.6695 20.4413 14.9856 20.3916 16.0398Z" fill="white"/>
<path d="M12 6.86664C9.07628 6.86664 6.70605 9.16509 6.70605 12.0002C6.70605 14.8353 9.07628 17.1336 12 17.1336C14.9238 17.1336 17.2939 14.8353 17.2939 12.0002C17.2939 9.16509 14.9238 6.86664 12 6.86664ZM12 15.3324C10.1022 15.3322 8.56358 13.8405 8.56378 12.0001C8.56378 10.1598 10.1022 8.66782 12.0001 8.66782C13.898 8.66797 15.4365 10.1598 15.4365 12.0001C15.4365 13.8405 13.8979 15.3324 12 15.3324Z" fill="white"/>
<path d="M18.7401 6.66378C18.7401 7.32626 18.1862 7.86335 17.503 7.86335C16.8197 7.86335 16.2659 7.32626 16.2659 6.66378C16.2659 6.00114 16.8197 5.46405 17.503 5.46405C18.1862 5.46405 18.7401 6.00114 18.7401 6.66378Z" fill="white"/>
</svg>
