<svg width="16" height="16" viewBox="0 0 16 16" fill="none" xmlns="http://www.w3.org/2000/svg">
<path d="M6.66665 10.3333C7.5507 10.3333 8.39855 9.9821 9.02367 9.35698C9.64879 8.73185 9.99998 7.88401 9.99998 6.99995C9.99998 6.1159 9.64879 5.26805 9.02367 4.64293C8.39855 4.01781 7.5507 3.66662 6.66665 3.66662C5.78259 3.66662 4.93474 4.01781 4.30962 4.64293C3.6845 5.26805 3.33331 6.1159 3.33331 6.99995C3.33331 7.88401 3.6845 8.73185 4.30962 9.35698C4.93474 9.9821 5.78259 10.3333 6.66665 10.3333V10.3333ZM10.6753 4.60929C11.0688 5.26924 11.2932 6.0161 11.3288 6.78362C11.3644 7.55113 11.21 8.31556 10.8792 9.00907C10.5485 9.70258 10.0517 10.3037 9.4329 10.7592C8.8141 11.2146 8.09245 11.5103 7.33198 11.62L7.33331 11.6666V12.3333H7.99998C8.17679 12.3333 8.34636 12.4035 8.47138 12.5285C8.59641 12.6536 8.66664 12.8231 8.66664 13C8.66664 13.1768 8.59641 13.3463 8.47138 13.4714C8.34636 13.5964 8.17679 13.6666 7.99998 13.6666H7.33331V14.3333C7.33331 14.5101 7.26307 14.6797 7.13805 14.8047C7.01303 14.9297 6.84346 15 6.66665 15C6.48983 15 6.32026 14.9297 6.19524 14.8047C6.07022 14.6797 5.99998 14.5101 5.99998 14.3333V13.6666H5.33331C5.1565 13.6666 4.98693 13.5964 4.86191 13.4714C4.73688 13.3463 4.66665 13.1768 4.66665 13C4.66665 12.8231 4.73688 12.6536 4.86191 12.5285C4.98693 12.4035 5.1565 12.3333 5.33331 12.3333H5.99998V11.6666C5.99998 11.6506 5.99998 11.6353 6.00131 11.62C4.83545 11.4491 3.77732 10.8437 3.03926 9.92518C2.3012 9.00666 1.93781 7.84299 2.02201 6.66769C2.10622 5.49239 2.63178 4.39242 3.49325 3.58849C4.35471 2.78457 5.48834 2.33617 6.66665 2.33329C7.83906 2.33186 8.96881 2.77304 9.82998 3.56862L11.0633 2.33529H10.0066C9.82983 2.33529 9.66026 2.26505 9.53524 2.14002C9.41022 2.015 9.33998 1.84543 9.33998 1.66862C9.33998 1.49181 9.41022 1.32224 9.53524 1.19722C9.66026 1.07219 9.82983 1.00195 10.0066 1.00195H12.6733C12.8501 1.00195 13.0197 1.07219 13.1447 1.19722C13.2697 1.32224 13.34 1.49181 13.34 1.66862V4.33529C13.34 4.5121 13.2697 4.68167 13.1447 4.80669C13.0197 4.93172 12.8501 5.00195 12.6733 5.00195C12.4965 5.00195 12.3269 4.93172 12.2019 4.80669C12.0769 4.68167 12.0066 4.5121 12.0066 4.33529V3.27795L10.676 4.60929H10.6753Z" fill="white"/>
</svg>
