<svg width="18" height="18" viewBox="0 0 18 18" fill="none" xmlns="http://www.w3.org/2000/svg">
<path d="M12.7261 3.83686V2.47807C12.7261 2.36029 12.5907 2.29526 12.4993 2.36733L4.57512 8.55658C4.5078 8.60894 4.45332 8.67599 4.41584 8.7526C4.37837 8.82922 4.35889 8.91338 4.35889 8.99867C4.35889 9.08396 4.37837 9.16813 4.41584 9.24474C4.45332 9.32136 4.5078 9.3884 4.57512 9.44076L12.4993 15.63C12.5925 15.7021 12.7261 15.6371 12.7261 15.5193V14.1605C12.7261 14.0744 12.6857 13.9917 12.6189 13.939L6.29075 8.99955L12.6189 4.05834C12.6857 4.00561 12.7261 3.92299 12.7261 3.83686V3.83686Z" fill="#8C8C8C"/>
</svg>
