<svg width="16" height="16" viewBox="0 0 16 16" fill="none" xmlns="http://www.w3.org/2000/svg">
<path d="M13.3334 7.33329V2.66663H8.66671L10.5287 4.52863L7.64737 7.40996C6.9726 6.9266 6.16341 6.66667 5.33337 6.66663C3.12737 6.66663 1.33337 8.46063 1.33337 10.6666C1.33337 12.8726 3.12737 14.6666 5.33337 14.6666C7.53937 14.6666 9.33337 12.8726 9.33337 10.6666C9.33337 9.80396 9.05604 9.00663 8.59004 8.35263L11.4714 5.47129L13.3334 7.33329ZM5.33337 13.3333C3.86271 13.3333 2.66671 12.1373 2.66671 10.6666C2.66671 9.19596 3.86271 7.99996 5.33337 7.99996C6.80404 7.99996 8.00004 9.19596 8.00004 10.6666C8.00004 12.1373 6.80404 13.3333 5.33337 13.3333Z" fill="white"/>
</svg>
