<svg width="30" height="31" viewBox="0 0 30 31" fill="none" xmlns="http://www.w3.org/2000/svg">
<g clip-path="url(#clip0)">
<path d="M14.9997 0.394257C11.7698 0.394257 9.14191 3.02213 9.14191 6.25205V16.2069C9.14191 19.4368 11.7698 22.0647 14.9997 22.0647C18.2296 22.0647 20.8575 19.4216 20.8575 16.173V6.25205C20.8575 3.02213 18.23 0.394257 14.9997 0.394257ZM18.8259 16.173C18.8259 18.3014 17.1095 20.0331 14.9997 20.0331C12.8899 20.0331 11.1735 18.3164 11.1735 16.2069V6.25205C11.1735 4.14221 12.8899 2.42588 14.9997 2.42588C17.1095 2.42588 18.8259 4.14226 18.8259 6.25205V16.173Z" fill="white"/>
<path d="M16.0159 25.0105H13.9843V29.6154H16.0159V25.0105Z" fill="white"/>
<path d="M19.1989 28.3626H10.8016C10.2406 28.3626 9.78583 28.8174 9.78583 29.3784C9.78583 29.9394 10.2406 30.3942 10.8016 30.3942H19.1989C19.7599 30.3942 20.2147 29.9394 20.2147 29.3784C20.2147 28.8174 19.7599 28.3626 19.1989 28.3626Z" fill="white"/>
<path d="M23.5664 11.1956C23.0054 11.1956 22.5506 11.6503 22.5506 12.2114V16.2069C22.5506 20.3703 19.1636 23.7577 14.9998 23.7577C10.8361 23.7577 7.44904 20.3703 7.44904 16.2069V12.2114C7.44904 11.6503 6.9943 11.1956 6.43326 11.1956C5.87223 11.1956 5.41748 11.6503 5.41748 12.2114V16.2069C5.41748 21.4908 9.71603 25.7893 14.9998 25.7893C20.2837 25.7893 24.5822 21.4907 24.5822 16.2069V12.2114C24.5822 11.6503 24.1275 11.1956 23.5664 11.1956Z" fill="white"/>
<path d="M27.3659 3.02822C26.969 2.63136 26.3264 2.63136 25.9295 3.02822L2.63382 26.3239C2.23697 26.7204 2.23697 27.3638 2.63382 27.7603C2.83193 27.9587 3.09197 28.0579 3.35201 28.0579C3.61169 28.0579 3.87208 27.9587 4.07019 27.7603L27.3659 4.46458C27.7627 4.06808 27.7627 3.42472 27.3659 3.02822Z" fill="white"/>
</g>
<defs>
<clipPath id="clip0">
<rect y="0.394257" width="30" height="30" fill="white"/>
</clipPath>
</defs>
</svg>
