<svg width="24" height="24" viewBox="0 0 24 24" fill="none" xmlns="http://www.w3.org/2000/svg">
<g clip-path="url(#clip0)">
<path d="M17.2121 3.93346C17.1906 3.73961 17.0694 3.56719 16.8929 3.4778L12.2633 1.13234C12.0978 1.04847 11.9023 1.04847 11.7368 1.13234L7.10711 3.47765C6.91132 3.57682 6.78791 3.77766 6.78791 3.99722V3.9973V3.99737V7.90481L0.332468 11.045C0.138619 11.1372 0.0110943 11.3285 0.000687267 11.5429C-0.00971973 11.7574 0.0986994 11.9601 0.282763 12.0706L4.35322 14.513V18.7797C4.35322 18.9995 4.47694 19.2006 4.67304 19.2996L11.7374 22.868C11.8199 22.9097 11.91 22.9306 12 22.9306C12.09 22.9306 12.1801 22.9097 12.2627 22.868L19.3269 19.2996C19.523 19.2006 19.6468 18.9995 19.6468 18.7797V14.513L23.7172 12.0706C23.9014 11.9601 24.0098 11.7574 23.9994 11.5429C23.989 11.3285 23.8615 11.1372 23.6677 11.0451L17.2121 7.9045V3.93346ZM17.7739 9.49833L17.2121 9.7804V9.21213L17.7739 9.49833ZM12.0001 2.30492L15.3407 3.99737L12.0001 5.68975L8.6593 3.99722L12.0001 2.30492ZM6.78783 9.21221V9.78025L6.22632 9.49833L6.78783 9.21221ZM1.81399 11.6308L4.92863 10.1505L10.8348 13.1157L7.70481 15.1656L1.81399 11.6308ZM11.4176 21.4014L5.51826 18.4214V15.2121L7.41878 16.3525C7.51112 16.408 7.61488 16.4355 7.71848 16.4355C7.82977 16.4355 7.94083 16.4037 8.0376 16.3403L11.4176 14.1266V21.4014ZM12.0001 12.3971L7.95287 10.3651V4.94527L11.7369 6.86233C11.8196 6.90427 11.9099 6.92524 12.0002 6.92524C12.0904 6.92524 12.1807 6.90427 12.2635 6.86233L16.0473 4.94542V10.3652L12.0001 12.3971ZM18.4819 18.4214L12.5826 21.4014V14.1267L15.9625 16.3404C16.0592 16.4038 16.1704 16.4356 16.2816 16.4356C16.3852 16.4356 16.4889 16.408 16.5813 16.3526L18.4819 15.2121V18.4214ZM16.2951 15.1656L13.1651 13.1157L19.0713 10.1504L22.1861 11.6308L16.2951 15.1656Z" fill="black"/>
</g>
<defs>
<clipPath id="clip0">
<rect width="24" height="24" fill="white"/>
</clipPath>
</defs>
</svg>
