<svg width="24" height="24" viewBox="0 0 24 24" fill="none" xmlns="http://www.w3.org/2000/svg">
<path d="M19.958 4.04201C18.9157 2.99684 17.6772 2.16796 16.3135 1.603C14.9499 1.03805 13.488 0.748166 12.012 0.750009C8.93797 0.750009 6.15197 1.98401 4.12297 3.98501L4.12397 3.98401V0.751009H2.62397V6.75101H8.62397V5.25101H4.98097C5.88924 4.30215 6.98033 3.54713 8.1884 3.03153C9.39646 2.51592 10.6965 2.2504 12.01 2.25101C17.38 2.25101 21.748 6.62001 21.748 11.989C21.748 17.358 17.379 21.727 12.01 21.727C6.64097 21.727 2.27197 17.358 2.27197 11.989H0.771973C0.771973 18.196 5.80397 23.227 12.01 23.227C15.113 23.227 17.923 21.969 19.957 19.935C21.991 17.901 23.249 15.092 23.249 11.988C23.249 8.88401 21.991 6.07501 19.957 4.04101L19.958 4.04201Z" fill="black"/>
<path d="M16.125 7.5H6.375V15H16.125V7.5ZM15.375 14.25H7.125V8.25H15.375V14.25Z" fill="black"/>
<path d="M16.875 9.375V15.75H8.25V16.5H17.625V9.375H16.875Z" fill="black"/>
<path d="M11.25 13.089C12.1805 13.089 12.9375 12.2655 12.9375 11.253C12.9375 10.2405 12.1805 9.41699 11.25 9.41699C10.3195 9.41699 9.5625 10.2405 9.5625 11.253C9.5625 12.2655 10.3195 13.089 11.25 13.089ZM11.25 10.1675C11.767 10.1675 12.1875 10.6545 12.1875 11.2535C12.1875 11.8525 11.767 12.3395 11.25 12.3395C10.733 12.3395 10.3125 11.8525 10.3125 11.2535C10.3125 10.6545 10.733 10.1675 11.25 10.1675Z" fill="black"/>
<path d="M7.875 9.1875H8.625V13.3125H7.875V9.1875Z" fill="black"/>
<path d="M13.875 9.1875H14.625V13.3125H13.875V9.1875Z" fill="black"/>
</svg>
