<svg width="21" height="21" viewBox="0 0 21 21" fill="none" xmlns="http://www.w3.org/2000/svg">
<path d="M20.7682 3.30992C20.4577 2.99866 19.9547 2.99784 19.6432 3.30779L13.6033 9.32325L11.8578 7.57776C11.547 7.26727 11.0438 7.26698 10.733 7.57776L3.65349 14.6573C3.34272 14.9678 3.34272 15.4716 3.65349 15.7821C3.80861 15.9375 4.01225 16.0151 4.2159 16.0151C4.41925 16.0151 4.62318 15.9375 4.77826 15.7821L11.2954 9.26522L13.0399 11.0094C13.3503 11.3199 13.8523 11.3201 14.1636 11.0107L20.7658 4.43494C21.0771 4.12498 21.0782 3.62119 20.7682 3.30992Z" fill="black"/>
<path d="M20.178 18.4545H1.59091V1.75001C1.59091 1.31066 1.23481 0.954559 0.795455 0.954559C0.356097 0.954559 0 1.31066 0 1.75001V19.25C0 19.6893 0.356097 20.0454 0.795455 20.0454H20.178C20.6174 20.0454 20.9735 19.6893 20.9735 19.25C20.9735 18.8106 20.6174 18.4545 20.178 18.4545Z" fill="black"/>
<path d="M20.2045 3.04926H14.2386C13.7993 3.04926 13.4432 3.40535 13.4432 3.84471C13.4432 4.28407 13.7993 4.64017 14.2386 4.64017H19.4091V9.81087C19.4091 10.2499 19.7652 10.6063 20.2045 10.6063C20.6439 10.6063 21 10.2499 21 9.81059V3.84471C21 3.40535 20.6439 3.04926 20.2045 3.04926Z" fill="black"/>
</svg>
