<svg width="24" height="24" viewBox="0 0 24 24" fill="none" xmlns="http://www.w3.org/2000/svg">
<path fill-rule="evenodd" clip-rule="evenodd" d="M1.5 6.40503V17.61C1.5 18.285 1.95 18.87 2.625 19.065L12.375 21.66C12.615 21.735 12.885 21.735 13.125 21.66L22.875 19.065C23.55 18.87 24 18.285 24 17.61V6.40503C24 5.73003 23.55 5.14503 22.875 4.95003L13.125 2.34003C12.877 2.29502 12.623 2.29502 12.375 2.34003L2.625 4.95003C1.95 5.14503 1.5 5.73003 1.5 6.40503ZM12 20.04L3 17.655V7.50003L12 9.91503V20.04ZM3 6.00003L6.75 4.99503L16.5 7.59003L12.75 8.59503L3 6.00003ZM22.5 17.655L13.5 20.04V9.91503L16.5 9.09003V12.75L19.5 11.955V8.29503L22.5 7.50003V17.655ZM19.5 6.79503L9.75 4.20003L12.75 3.40503L22.5 6.00003L19.5 6.79503Z" fill="black"/>
</svg>
