<svg width="18" height="18" viewBox="0 0 18 18" fill="none" xmlns="http://www.w3.org/2000/svg">
<path d="M15.0907 13.4227C14.7592 12.6372 14.278 11.9238 13.6739 11.3221C13.0718 10.7186 12.3585 10.2375 11.5734 9.90527C11.5663 9.90176 11.5593 9.9 11.5523 9.89648C12.6474 9.10547 13.3593 7.81699 13.3593 6.36328C13.3593 3.95508 11.4081 2.00391 8.99992 2.00391C6.59172 2.00391 4.64055 3.95508 4.64055 6.36328C4.64055 7.81699 5.35246 9.10547 6.44758 9.89824C6.44055 9.90176 6.43352 9.90352 6.42648 9.90703C5.63898 10.2393 4.93234 10.7156 4.3259 11.3238C3.72246 11.926 3.24134 12.6393 2.9091 13.4244C2.58271 14.193 2.40669 15.0171 2.39055 15.852C2.39008 15.8707 2.39337 15.8894 2.40023 15.9068C2.40708 15.9243 2.41737 15.9402 2.43047 15.9537C2.44358 15.9671 2.45924 15.9778 2.47653 15.9851C2.49383 15.9923 2.51241 15.9961 2.53117 15.9961H3.58586C3.6632 15.9961 3.72473 15.9346 3.72648 15.859C3.76164 14.502 4.30656 13.2311 5.26984 12.2678C6.26652 11.2711 7.59016 10.7227 8.99992 10.7227C10.4097 10.7227 11.7333 11.2711 12.73 12.2678C13.6933 13.2311 14.2382 14.502 14.2734 15.859C14.2751 15.9363 14.3366 15.9961 14.414 15.9961H15.4687C15.4874 15.9961 15.506 15.9923 15.5233 15.9851C15.5406 15.9778 15.5563 15.9671 15.5694 15.9537C15.5825 15.9402 15.5928 15.9243 15.5996 15.9068C15.6065 15.8894 15.6098 15.8707 15.6093 15.852C15.5917 15.0117 15.4177 14.1943 15.0907 13.4227V13.4227ZM8.99992 9.38672C8.19309 9.38672 7.43371 9.07207 6.86242 8.50078C6.29113 7.92949 5.97648 7.17012 5.97648 6.36328C5.97648 5.55645 6.29113 4.79707 6.86242 4.22578C7.43371 3.65449 8.19309 3.33984 8.99992 3.33984C9.80676 3.33984 10.5661 3.65449 11.1374 4.22578C11.7087 4.79707 12.0234 5.55645 12.0234 6.36328C12.0234 7.17012 11.7087 7.92949 11.1374 8.50078C10.5661 9.07207 9.80676 9.38672 8.99992 9.38672Z" fill="black"/>
</svg>
