<svg width="24" height="24" viewBox="0 0 24 24" fill="none" xmlns="http://www.w3.org/2000/svg">
<path fill-rule="evenodd" clip-rule="evenodd" d="M1.5 6.40498V17.61C1.5 18.285 1.95 18.87 2.625 19.065L12.375 21.66C12.615 21.735 12.885 21.735 13.125 21.66L22.875 19.065C23.55 18.87 24 18.285 24 17.61V6.40498C24 5.72998 23.55 5.14498 22.875 4.94998L13.125 2.33998C12.877 2.29498 12.623 2.29498 12.375 2.33998L2.625 4.94998C1.95 5.14498 1.5 5.72998 1.5 6.40498ZM12 20.04L3 17.655V7.49998L12 9.91498V20.04ZM3 5.99998L6.75 4.99498L16.5 7.58998L12.75 8.59498L3 5.99998ZM22.5 17.655L13.5 20.04V9.91498L16.5 9.08998V12.75L19.5 11.955V8.29498L22.5 7.49998V17.655ZM19.5 6.79498L9.75 4.19998L12.75 3.40498L22.5 5.99998L19.5 6.79498Z" fill="black"/>
</svg>
