<svg width="24" height="24" viewBox="0 0 24 24" fill="none" xmlns="http://www.w3.org/2000/svg">
<path d="M7.5 6.75C7.5 6.75 7.5 2.25 12 2.25C16.5 2.25 16.5 6.75 16.5 6.75M3.75 6.75V21.75H20.25V6.75H3.75Z" stroke="black" stroke-linecap="round" stroke-linejoin="round"/>
<path d="M12 9C9.243 9 7 11.243 7 14C7 16.757 9.243 19 12 19C14.757 19 17 16.757 17 14C17 11.243 14.757 9 12 9ZM12 18C9.7945 18 8 16.2055 8 14C8 11.7945 9.7945 10 12 10C14.2055 10 16 11.7945 16 14C16 16.2055 14.2055 18 12 18Z" fill="black"/>
<path d="M10.5 16.5L14.5 14L10.5 11.5V16.5Z" fill="black"/>
</svg>
