<svg width="24" height="24" viewBox="0 0 24 24" fill="none" xmlns="http://www.w3.org/2000/svg">
<path d="M7.5 6.75C7.5 6.75 7.5 2.25 12 2.25C16.5 2.25 16.5 6.75 16.5 6.75M3.75 6.75V21.75H20.25V6.75H3.75Z" stroke="black" stroke-linecap="round" stroke-linejoin="round"/>
<path d="M12.4816 13.966L11.5699 15.1285L11.0883 14.5145C11.0795 14.5032 11.0683 14.4942 11.0555 14.488C11.0427 14.4817 11.0287 14.4785 11.0145 14.4785C11.0002 14.4785 10.9862 14.4817 10.9734 14.488C10.9606 14.4942 10.9494 14.5032 10.9406 14.5145L9.77109 16.0051C9.76027 16.0189 9.75356 16.0355 9.75172 16.0529C9.74988 16.0704 9.75299 16.088 9.76069 16.1038C9.76839 16.1195 9.78038 16.1328 9.79527 16.1421C9.81017 16.1514 9.82737 16.1563 9.84492 16.1562H14.1562C14.2348 16.1562 14.2781 16.066 14.2301 16.0051L12.6305 13.966C12.6216 13.9548 12.6103 13.9457 12.5974 13.9395C12.5845 13.9333 12.5704 13.93 12.5561 13.93C12.5417 13.93 12.5276 13.9333 12.5147 13.9395C12.5018 13.9457 12.4905 13.9548 12.4816 13.966ZM10.2188 13.1797C10.2188 13.304 10.2681 13.4232 10.356 13.5111C10.444 13.5991 10.5632 13.6484 10.6875 13.6484C10.8118 13.6484 10.931 13.5991 11.019 13.5111C11.1069 13.4232 11.1562 13.304 11.1562 13.1797C11.1562 13.0554 11.1069 12.9361 11.019 12.8482C10.931 12.7603 10.8118 12.7109 10.6875 12.7109C10.5632 12.7109 10.444 12.7603 10.356 12.8482C10.2681 12.9361 10.2188 13.0554 10.2188 13.1797ZM16.0148 11.382L13.493 8.86016C13.4227 8.78984 13.3277 8.75 13.2281 8.75H8.25C8.04258 8.75 7.875 8.91758 7.875 9.125V18.875C7.875 19.0824 8.04258 19.25 8.25 19.25H15.75C15.9574 19.25 16.125 19.0824 16.125 18.875V11.648C16.125 11.5484 16.0852 11.4523 16.0148 11.382ZM15.2602 11.8203H13.0547V9.61484L15.2602 11.8203ZM15.2812 18.4062H8.71875V9.59375H12.2578V12.125C12.2578 12.2555 12.3097 12.3807 12.402 12.473C12.4943 12.5653 12.6195 12.6172 12.75 12.6172H15.2812V18.4062Z" fill="black"/>
</svg>
