<svg width="18" height="18" viewBox="0 0 18 18" fill="none" xmlns="http://www.w3.org/2000/svg">
<path d="M12.9674 8.55692L5.04316 2.36767C5.02246 2.35136 4.99757 2.34123 4.97137 2.33844C4.94517 2.33564 4.9187 2.34029 4.89502 2.35186C4.87134 2.36342 4.85141 2.38143 4.8375 2.40382C4.82359 2.4262 4.81628 2.45206 4.81641 2.47841V3.8372C4.81641 3.92333 4.85684 4.00595 4.92363 4.05868L11.2517 8.99989L4.92363 13.9411C4.85508 13.9938 4.81641 14.0765 4.81641 14.1626V15.5214C4.81641 15.6392 4.95176 15.7042 5.04316 15.6321L12.9674 9.44286C13.0347 9.39033 13.0892 9.32312 13.1267 9.24636C13.1641 9.1696 13.1836 9.08531 13.1836 8.99989C13.1836 8.91448 13.1641 8.83018 13.1267 8.75342C13.0892 8.67666 13.0347 8.60946 12.9674 8.55692Z" fill="#8C8C8C"/>
</svg>
