<svg width="24" height="24" viewBox="0 0 24 24" fill="none" xmlns="http://www.w3.org/2000/svg">
<g clip-path="url(#clip0)">
<path d="M11.9983 7.5L11.9961 12.7471C11.9961 12.9463 12.0752 13.1368 12.2158 13.2774L15.9695 17.0303L17.03 15.9697L13.4961 12.4365L13.4982 7.5H11.9983Z" fill="black"/>
<path d="M13.5 1.49997C8.22083 1.49997 3.85164 5.42063 3.11987 10.5H0L3.75 14.25L7.49999 10.5H4.63548C5.353 6.25028 9.04917 2.99999 13.5 2.99999C18.4629 2.99999 22.5 7.03709 22.5 12C22.5 16.9629 18.4629 21 13.5 21C10.7102 21 8.12332 19.7373 6.40283 17.5356L5.22071 18.4585C7.22752 21.0264 10.2451 22.5 13.5 22.5C19.2898 22.5 24 17.789 24 12C24 6.21096 19.2898 1.50001 13.5 1.49997Z" fill="black"/>
</g>
<defs>
<clipPath id="clip0">
<rect width="24" height="24" fill="white"/>
</clipPath>
</defs>
</svg>
