<svg width="30" height="30" viewBox="0 0 30 30" fill="none" xmlns="http://www.w3.org/2000/svg">
<path d="M26.7552 14.6367L3.64018 3.04608C3.54623 2.9991 3.43846 2.98804 3.33622 3.01291C3.10134 3.07095 2.95488 3.30862 3.01291 3.54629L5.39488 13.2797C5.4308 13.4262 5.53857 13.5451 5.68226 13.592L9.76365 14.9932L5.68502 16.3943C5.54133 16.4441 5.43356 16.5602 5.4004 16.7066L3.01291 26.4539C2.98804 26.5562 2.9991 26.6639 3.04607 26.7551C3.15384 26.9735 3.41912 27.0619 3.64018 26.9541L26.7552 15.4298C26.8408 15.3884 26.9099 15.3165 26.9541 15.2336C27.0619 15.0125 26.9735 14.7472 26.7552 14.6367ZM5.73752 23.6848L7.12746 18.0028L15.2847 15.2032C15.3483 15.1811 15.4008 15.1314 15.4229 15.065C15.4616 14.949 15.4008 14.8246 15.2847 14.7832L7.12746 11.9864L5.74305 6.32649L23.0966 15.0291L5.73752 23.6848Z" fill="#FF0066"/>
</svg>
