<svg width="24" height="24" viewBox="0 0 24 24" fill="none" xmlns="http://www.w3.org/2000/svg">
<path d="M21.6748 14.6652L20.1397 13.3527C20.2123 12.9074 20.2498 12.4527 20.2498 11.998C20.2498 11.5433 20.2123 11.0886 20.1397 10.6433L21.6748 9.33081C21.7906 9.23169 21.8735 9.09966 21.9124 8.95229C21.9513 8.80492 21.9445 8.64919 21.8928 8.50581L21.8717 8.44487C21.4491 7.26368 20.8162 6.16871 20.0037 5.21284L19.9615 5.16362C19.863 5.04773 19.7316 4.96442 19.5847 4.92467C19.4379 4.88492 19.2824 4.89061 19.1389 4.94097L17.2334 5.61831C16.5303 5.04175 15.7451 4.58706 14.8967 4.26831L14.5287 2.27612C14.501 2.12622 14.4282 1.98832 14.3202 1.88073C14.2122 1.77314 14.074 1.70096 13.924 1.67378L13.8607 1.66206C12.6397 1.44175 11.3553 1.44175 10.1342 1.66206L10.0709 1.67378C9.9209 1.70096 9.78271 1.77314 9.6747 1.88073C9.56669 1.98832 9.49398 2.12622 9.46622 2.27612L9.0959 4.27769C8.25424 4.5965 7.47043 5.05095 6.77559 5.623L4.85606 4.94097C4.71254 4.89021 4.55698 4.88432 4.41003 4.92409C4.26309 4.96386 4.13173 5.04741 4.0334 5.16362L3.99122 5.21284C3.17968 6.16938 2.54694 7.26418 2.12325 8.44487L2.10215 8.50581C1.99668 8.79878 2.0834 9.1269 2.32012 9.33081L3.87403 10.6574C3.80137 11.098 3.76622 11.548 3.76622 11.9957C3.76622 12.4457 3.80137 12.8957 3.87403 13.3339L2.32012 14.6605C2.20433 14.7596 2.12146 14.8916 2.08252 15.039C2.04359 15.1864 2.05043 15.3421 2.10215 15.4855L2.12325 15.5464C2.54747 16.7277 3.17559 17.8175 3.99122 18.7785L4.0334 18.8277C4.13197 18.9436 4.26333 19.0269 4.41019 19.0666C4.55704 19.1064 4.7125 19.1007 4.85606 19.0503L6.77559 18.3683C7.47403 18.9425 8.2545 19.3972 9.0959 19.7136L9.46622 21.7152C9.49398 21.8651 9.56669 22.003 9.6747 22.1106C9.78271 22.2182 9.9209 22.2903 10.0709 22.3175L10.1342 22.3292C11.3665 22.5507 12.6284 22.5507 13.8607 22.3292L13.924 22.3175C14.074 22.2903 14.2122 22.2182 14.3202 22.1106C14.4282 22.003 14.501 21.8651 14.5287 21.7152L14.8967 19.723C15.7448 19.4051 16.5344 18.9489 17.2334 18.373L19.1389 19.0503C19.2824 19.1011 19.438 19.107 19.5849 19.0672C19.7318 19.0274 19.8632 18.9439 19.9615 18.8277L20.0037 18.7785C20.8193 17.8152 21.4475 16.7277 21.8717 15.5464L21.8928 15.4855C21.9982 15.1972 21.9115 14.8691 21.6748 14.6652ZM18.4756 10.9199C18.5342 11.2738 18.5647 11.6371 18.5647 12.0003C18.5647 12.3636 18.5342 12.7269 18.4756 13.0808L18.3209 14.0207L20.0717 15.5183C19.8063 16.1298 19.4712 16.7086 19.0732 17.2433L16.8982 16.4722L16.1623 17.0769C15.6022 17.5363 14.9787 17.8972 14.3037 18.1503L13.4107 18.4855L12.9912 20.7589C12.3293 20.8339 11.661 20.8339 10.999 20.7589L10.5795 18.4808L9.69356 18.141C9.02559 17.8878 8.4045 17.5269 7.84903 17.0699L7.11309 16.4628L4.92403 17.241C4.52559 16.7042 4.19278 16.1253 3.92559 15.516L5.69512 14.0042L5.54278 13.0667C5.48653 12.7175 5.45606 12.3566 5.45606 12.0003C5.45606 11.6417 5.48418 11.2832 5.54278 10.9339L5.69512 9.99644L3.92559 8.48472C4.19043 7.873 4.52559 7.29644 4.92403 6.75972L7.11309 7.53784L7.84903 6.93081C8.4045 6.47378 9.02559 6.11284 9.69356 5.85972L10.5818 5.52456L11.0014 3.24644C11.66 3.17144 12.3326 3.17144 12.9936 3.24644L13.4131 5.51987L14.3061 5.85503C14.9787 6.10815 15.6045 6.46909 16.1647 6.92847L16.9006 7.53315L19.0756 6.76206C19.474 7.29878 19.8068 7.87769 20.074 8.48706L18.3232 9.98472L18.4756 10.9199ZM11.9998 7.64097C9.72168 7.64097 7.87481 9.48784 7.87481 11.766C7.87481 14.0441 9.72168 15.891 11.9998 15.891C14.2779 15.891 16.1248 14.0441 16.1248 11.766C16.1248 9.48784 14.2779 7.64097 11.9998 7.64097ZM13.8561 13.6222C13.6126 13.8664 13.3233 14.06 13.0047 14.1919C12.6861 14.3239 12.3446 14.3915 11.9998 14.391C11.299 14.391 10.6404 14.1167 10.1436 13.6222C9.8994 13.3788 9.70578 13.0894 9.57385 12.7708C9.44192 12.4523 9.37427 12.1108 9.37481 11.766C9.37481 11.0652 9.64903 10.4066 10.1436 9.90972C10.6404 9.41284 11.299 9.14097 11.9998 9.14097C12.7006 9.14097 13.3592 9.41284 13.8561 9.90972C14.1002 10.1532 14.2938 10.4425 14.4258 10.7611C14.5577 11.0797 14.6253 11.4212 14.6248 11.766C14.6248 12.4667 14.3506 13.1253 13.8561 13.6222Z" fill="#FF0066"/>
</svg>
