<svg width="25" height="24" viewBox="0 0 25 24" fill="none" xmlns="http://www.w3.org/2000/svg">
<g clip-path="url(#clip0)">
<path d="M12.8501 24C19.4775 24 24.8501 18.6274 24.8501 12C24.8501 5.37258 19.4775 0 12.8501 0C6.22268 0 0.850098 5.37258 0.850098 12C0.850098 18.6274 6.22268 24 12.8501 24Z" fill="#FFD93B"/>
<path d="M24.85 11.9999C24.85 18.6299 19.4763 23.9999 12.85 23.9999C9.07754 23.9999 5.71004 22.2599 3.50879 19.5337C5.56754 21.1987 8.18879 22.1924 11.0425 22.1924C17.6688 22.1924 23.0425 16.8224 23.0425 10.1924C23.0425 7.33869 22.0488 4.71744 20.3838 2.65869C23.1063 4.85994 24.85 8.22744 24.85 11.9999Z" fill="#F4C534"/>
<path d="M8.86049 12.5122C9.87614 12.5122 10.6995 11.5338 10.6995 10.3267C10.6995 9.11972 9.87614 8.14124 8.86049 8.14124C7.84483 8.14124 7.02148 9.11972 7.02148 10.3267C7.02148 11.5338 7.84483 12.5122 8.86049 12.5122Z" fill="black"/>
<path d="M9.69038 9.85638C9.54713 9.96888 9.31163 9.91338 9.16088 9.73038C9.01013 9.54738 9.00263 9.30213 9.14588 9.18964C9.28838 9.07189 9.52463 9.12739 9.67463 9.31038C9.82613 9.49863 9.82763 9.73938 9.69038 9.85638Z" fill="black"/>
<path d="M16.6134 12.5122C17.6291 12.5122 18.4524 11.5338 18.4524 10.3267C18.4524 9.11972 17.6291 8.14124 16.6134 8.14124C15.5978 8.14124 14.7744 9.11972 14.7744 10.3267C14.7744 11.5338 15.5978 12.5122 16.6134 12.5122Z" fill="black"/>
<path d="M17.4414 9.85638C17.2981 9.96888 17.0626 9.91338 16.9119 9.73038C16.7611 9.54738 16.7536 9.30213 16.8969 9.18964C17.0394 9.07189 17.2749 9.12739 17.4256 9.31038C17.5771 9.49863 17.5786 9.73938 17.4414 9.85638Z" fill="black"/>
<path d="M18.6791 15.772C17.428 17.4372 15.4364 18.5143 13.1932 18.5143C10.9498 18.5143 8.95806 17.437 7.70703 15.7715" stroke="black" stroke-width="2" stroke-linecap="round" stroke-linejoin="round"/>
</g>
<defs>
<clipPath id="clip0">
<rect x="0.850098" width="24" height="24" fill="white"/>
</clipPath>
</defs>
</svg>
