<svg width="24" height="24" viewBox="0 0 24 24" fill="none" xmlns="http://www.w3.org/2000/svg">
<path d="M21.2836 8.27584L15.3328 7.411L12.6726 2.01803C12.6 1.87037 12.4804 1.75084 12.3328 1.67818C11.9625 1.49537 11.5125 1.64771 11.3273 2.01803L8.66717 7.411L2.71639 8.27584C2.55233 8.29928 2.40233 8.37662 2.28748 8.49381C2.14864 8.63651 2.07214 8.8285 2.07477 9.02758C2.07741 9.22666 2.15897 9.41655 2.30155 9.55553L6.60701 13.7532L5.58983 19.6805C5.56597 19.8184 5.58123 19.9602 5.63387 20.0899C5.68651 20.2195 5.77442 20.3318 5.88764 20.4141C6.00086 20.4963 6.13486 20.5452 6.27443 20.5551C6.41401 20.5651 6.55358 20.5357 6.67733 20.4704L12 17.6719L17.3226 20.4704C17.4679 20.5477 17.6367 20.5735 17.7984 20.5454C18.2062 20.4751 18.4804 20.0883 18.4101 19.6805L17.3929 13.7532L21.6984 9.55553C21.8156 9.44068 21.8929 9.29068 21.9164 9.12662C21.9797 8.71646 21.6937 8.33678 21.2836 8.27584ZM15.5812 13.1626L16.4273 18.0915L12 15.7665L7.57264 18.0938L8.41873 13.1649L4.83748 9.67272L9.78748 8.95318L12 4.46959L14.2125 8.95318L19.1625 9.67272L15.5812 13.1626Z" fill="white"/>
</svg>
