<svg width="25" height="24" viewBox="0 0 25 24" fill="none" xmlns="http://www.w3.org/2000/svg">
<path d="M9.8501 10C9.58488 10 9.33053 10.1054 9.14299 10.2929C8.95545 10.4804 8.8501 10.7348 8.8501 11V13C8.8501 13.2652 8.95545 13.5196 9.14299 13.7071C9.33053 13.8946 9.58488 14 9.8501 14C10.1153 14 10.3697 13.8946 10.5572 13.7071C10.7447 13.5196 10.8501 13.2652 10.8501 13V11C10.8501 10.7348 10.7447 10.4804 10.5572 10.2929C10.3697 10.1054 10.1153 10 9.8501 10ZM21.8501 11C22.1153 11 22.3697 10.8946 22.5572 10.7071C22.7447 10.5196 22.8501 10.2652 22.8501 10V6C22.8501 5.73478 22.7447 5.48043 22.5572 5.29289C22.3697 5.10536 22.1153 5 21.8501 5H3.8501C3.58488 5 3.33053 5.10536 3.14299 5.29289C2.95545 5.48043 2.8501 5.73478 2.8501 6V10C2.8501 10.2652 2.95545 10.5196 3.14299 10.7071C3.33053 10.8946 3.58488 11 3.8501 11C4.11531 11 4.36967 11.1054 4.5572 11.2929C4.74474 11.4804 4.8501 11.7348 4.8501 12C4.8501 12.2652 4.74474 12.5196 4.5572 12.7071C4.36967 12.8946 4.11531 13 3.8501 13C3.58488 13 3.33053 13.1054 3.14299 13.2929C2.95545 13.4804 2.8501 13.7348 2.8501 14V18C2.8501 18.2652 2.95545 18.5196 3.14299 18.7071C3.33053 18.8946 3.58488 19 3.8501 19H21.8501C22.1153 19 22.3697 18.8946 22.5572 18.7071C22.7447 18.5196 22.8501 18.2652 22.8501 18V14C22.8501 13.7348 22.7447 13.4804 22.5572 13.2929C22.3697 13.1054 22.1153 13 21.8501 13C21.5849 13 21.3305 12.8946 21.143 12.7071C20.9555 12.5196 20.8501 12.2652 20.8501 12C20.8501 11.7348 20.9555 11.4804 21.143 11.2929C21.3305 11.1054 21.5849 11 21.8501 11ZM20.8501 9.18C20.2709 9.3902 19.7706 9.77363 19.4169 10.2782C19.0633 10.7827 18.8736 11.3839 18.8736 12C18.8736 12.6161 19.0633 13.2173 19.4169 13.7218C19.7706 14.2264 20.2709 14.6098 20.8501 14.82V17H10.8501C10.8501 16.7348 10.7447 16.4804 10.5572 16.2929C10.3697 16.1054 10.1153 16 9.8501 16C9.58488 16 9.33053 16.1054 9.14299 16.2929C8.95545 16.4804 8.8501 16.7348 8.8501 17H4.8501V14.82C5.42925 14.6098 5.92964 14.2264 6.28326 13.7218C6.63687 13.2173 6.82657 12.6161 6.82657 12C6.82657 11.3839 6.63687 10.7827 6.28326 10.2782C5.92964 9.77363 5.42925 9.3902 4.8501 9.18V7H8.8501C8.8501 7.26522 8.95545 7.51957 9.14299 7.70711C9.33053 7.89464 9.58488 8 9.8501 8C10.1153 8 10.3697 7.89464 10.5572 7.70711C10.7447 7.51957 10.8501 7.26522 10.8501 7H20.8501V9.18Z" fill="white"/>
</svg>
