<svg width="24" height="24" viewBox="0 0 24 24" fill="none" xmlns="http://www.w3.org/2000/svg">
<path d="M19.958 4.04201C18.9157 2.99684 17.6772 2.16796 16.3135 1.603C14.9499 1.03805 13.488 0.748166 12.012 0.750009C8.93797 0.750009 6.15197 1.98401 4.12297 3.98501L4.12397 3.98401V0.751009H2.62397V6.75101H8.62397V5.25101H4.98097C5.88924 4.30215 6.98033 3.54713 8.1884 3.03153C9.39646 2.51592 10.6965 2.2504 12.01 2.25101C17.38 2.25101 21.748 6.62001 21.748 11.989C21.748 17.358 17.379 21.727 12.01 21.727C6.64097 21.727 2.27197 17.358 2.27197 11.989H0.771973C0.771973 18.196 5.80397 23.227 12.01 23.227C15.113 23.227 17.923 21.969 19.957 19.935C21.991 17.901 23.249 15.092 23.249 11.988C23.249 8.88401 21.991 6.07501 19.957 4.04101L19.958 4.04201Z" fill="black"/>
<path d="M12.0003 6.16675C8.77897 6.16675 6.16699 8.77873 6.16699 12.0001C6.16699 15.2214 8.77897 17.8334 12.0003 17.8334C15.2217 17.8334 17.8337 15.2214 17.8337 12.0001C17.8337 8.77873 15.2217 6.16675 12.0003 6.16675ZM12.0003 16.8438C9.32585 16.8438 7.15658 14.6746 7.15658 12.0001C7.15658 9.3256 9.32585 7.15633 12.0003 7.15633C14.6748 7.15633 16.8441 9.3256 16.8441 12.0001C16.8441 14.6746 14.6748 16.8438 12.0003 16.8438ZM12.6214 11.698L12.2907 11.6212V9.87248C12.7855 9.94019 13.0915 10.2501 13.1436 10.6303C13.1501 10.6824 13.1943 10.7201 13.2464 10.7201H13.8311C13.8923 10.7201 13.9404 10.6667 13.9352 10.6056C13.8558 9.79435 13.1878 9.27352 12.2959 9.18368V8.75789C12.2959 8.7006 12.249 8.65373 12.1917 8.65373H11.8258C11.7686 8.65373 11.7217 8.7006 11.7217 8.75789V9.18758C10.7998 9.27743 10.0785 9.78654 10.0785 10.7371C10.0785 11.6173 10.7269 12.0417 11.4079 12.2045L11.7295 12.2865V14.1446C11.154 14.0678 10.8311 13.7605 10.7646 13.3464C10.7568 13.297 10.7126 13.2605 10.6618 13.2605H10.0602C9.99902 13.2605 9.95085 13.3126 9.95606 13.3738C10.0146 14.0899 10.5576 14.7488 11.7165 14.8334V15.2423C11.7165 15.2996 11.7633 15.3464 11.8206 15.3464H12.1904C12.2477 15.3464 12.2946 15.2996 12.2946 15.241L12.292 14.8282C13.3115 14.7384 14.0407 14.1928 14.0407 13.2136C14.0394 12.31 13.4652 11.9063 12.6214 11.698ZM11.7282 11.4871C11.6553 11.4662 11.5941 11.4467 11.5329 11.422C11.0928 11.2631 10.8883 11.0066 10.8883 10.6759C10.8883 10.2032 11.2464 9.93368 11.7282 9.87248V11.4871ZM12.2907 14.1485V12.4076C12.3311 12.4194 12.3675 12.4285 12.4053 12.4363C13.0212 12.6238 13.2282 12.8842 13.2282 13.2839C13.2282 13.7931 12.8454 14.099 12.2907 14.1485Z" fill="black"/>
</svg>
