<svg width="24" height="24" viewBox="0 0 24 24" fill="none" xmlns="http://www.w3.org/2000/svg">
<path d="M8.01701 21.7445C16.7119 21.7445 21.4666 14.5411 21.4666 8.29491C21.4666 8.09031 21.4624 7.88658 21.4532 7.6839C22.3761 7.01664 23.1784 6.18396 23.8112 5.23614C22.9643 5.61266 22.0527 5.86597 21.0966 5.9804C22.0725 5.39505 22.8219 4.46938 23.1752 3.36582C22.2618 3.90723 21.2504 4.30063 20.1736 4.51316C19.311 3.59434 18.0828 3.01971 16.7229 3.01971C14.1126 3.01971 11.9956 5.13665 11.9956 7.74613C11.9956 8.1172 12.0372 8.47791 12.1182 8.82402C8.18945 8.62627 4.70564 6.74541 2.37442 3.88509C1.96854 4.58364 1.7344 5.39522 1.7344 6.26113C1.7344 7.90099 2.56901 9.34891 3.83798 10.1958C3.06243 10.1719 2.334 9.95907 1.69713 9.60463C1.69643 9.62451 1.69643 9.6439 1.69643 9.66492C1.69643 11.9543 3.32575 13.8658 5.48892 14.2989C5.09165 14.407 4.67365 14.4652 4.24246 14.4652C3.93835 14.4652 3.64199 14.4354 3.35388 14.38C3.95575 16.2582 5.70092 17.6249 7.76986 17.6632C6.15197 18.9313 4.11378 19.6867 1.89876 19.6867C1.51766 19.6867 1.14114 19.6649 0.771118 19.6213C2.8631 20.9621 5.34742 21.7447 8.01719 21.7447" fill="white"/>
</svg>
