<svg width="18" height="18" viewBox="0 0 18 18" fill="none" xmlns="http://www.w3.org/2000/svg">
<path d="M7.03125 4.77341H8.33027V10.7201C8.33027 10.7974 8.39355 10.8607 8.4709 10.8607H9.52559C9.60293 10.8607 9.66621 10.7974 9.66621 10.7201V4.77341H10.9688C11.0865 4.77341 11.1516 4.63806 11.0795 4.54666L9.11074 2.05408C9.09759 2.03727 9.08078 2.02368 9.06159 2.01433C9.04241 2.00498 9.02134 2.00012 9 2.00012C8.97866 2.00012 8.95759 2.00498 8.93841 2.01433C8.91922 2.02368 8.90241 2.03727 8.88926 2.05408L6.92051 4.5449C6.84844 4.63806 6.91348 4.77341 7.03125 4.77341ZM15.4336 10.1928H14.3789C14.3016 10.1928 14.2383 10.256 14.2383 10.3334V13.0404H3.76172V10.3334C3.76172 10.256 3.69844 10.1928 3.62109 10.1928H2.56641C2.48906 10.1928 2.42578 10.256 2.42578 10.3334V13.8138C2.42578 14.125 2.67715 14.3763 2.98828 14.3763H15.0117C15.3229 14.3763 15.5742 14.125 15.5742 13.8138V10.3334C15.5742 10.256 15.5109 10.1928 15.4336 10.1928Z" fill="#8C8C8C"/>
</svg>
