<svg width="151" height="150" viewBox="0 0 151 150" fill="none" xmlns="http://www.w3.org/2000/svg">
<path d="M132.1 75C132.1 43.9453 106.905 18.75 75.8501 18.75C44.7954 18.75 19.6001 43.9453 19.6001 75C19.6001 106.055 44.7954 131.25 75.8501 131.25C106.905 131.25 132.1 106.055 132.1 75Z" stroke="white" stroke-miterlimit="10"/>
<path d="M64.2252 97.9805L97.7554 77.7246C98.2228 77.4399 98.6091 77.0397 98.8771 76.5625C99.1451 76.0854 99.2859 75.5473 99.2859 75C99.2859 74.4527 99.1451 73.9146 98.8771 73.4375C98.6091 72.9603 98.2228 72.5601 97.7554 72.2754L64.2252 52.0196C63.7445 51.7316 63.196 51.5767 62.6358 51.5707C62.0755 51.5648 61.5238 51.7079 61.0371 51.9855C60.5505 52.2632 60.1465 52.6652 59.8665 53.1505C59.5865 53.6358 59.4406 54.1868 59.4439 54.7471V95.2529C59.4406 95.8132 59.5865 96.3642 59.8665 96.8495C60.1465 97.3348 60.5505 97.7369 61.0371 98.0145C61.5238 98.2921 62.0755 98.4353 62.6358 98.4293C63.196 98.4233 63.7445 98.2684 64.2252 97.9805Z" fill="white"/>
</svg>
