<svg width="36" height="35" viewBox="0 0 36 35" fill="none" xmlns="http://www.w3.org/2000/svg">
<path d="M24.1833 30.625C29.3269 28.369 32.9319 23.466 32.9319 17.5C32.9319 11.534 29.3269 6.63104 24.1833 4.375V7.29167C27.6644 9.31292 30.0152 13.1935 30.0152 17.5C30.0152 21.8065 27.6644 25.6871 24.1833 27.7083V30.625Z" fill="white"/>
<path d="M24.1835 10.2083V24.7916C25.97 23.1875 27.1002 20.0827 27.1002 17.5C27.1002 14.9173 25.97 11.8125 24.1835 10.2083ZM6.68351 24.7916H10.6166L18.9991 30.38C19.219 30.526 19.4743 30.6099 19.7379 30.6227C20.0016 30.6355 20.2638 30.5769 20.4968 30.4529C20.7296 30.3283 20.9242 30.1428 21.0598 29.9163C21.1954 29.6898 21.267 29.4307 21.2668 29.1666V5.83331C21.2667 5.56952 21.195 5.31071 21.0594 5.08444C20.9238 4.85817 20.7294 4.67291 20.4968 4.5484C20.2643 4.42389 20.0023 4.36479 19.7388 4.3774C19.4753 4.39 19.2202 4.47384 19.0006 4.61998L10.6166 10.2083H6.68351C5.07497 10.2083 3.76685 11.5164 3.76685 13.125V21.875C3.76685 23.4835 5.07497 24.7916 6.68351 24.7916ZM6.68351 13.125H11.0585C11.1066 13.125 11.1475 13.1016 11.1941 13.0973C11.3881 13.0775 11.5764 13.02 11.7483 12.9281C11.7862 12.9062 11.8314 12.9033 11.8679 12.88L18.3502 8.55748V26.4425L11.8679 22.12C11.8314 22.0952 11.7862 22.0908 11.7483 22.0719C11.5761 21.9781 11.3865 21.9205 11.1912 21.9027C11.1446 21.8983 11.1052 21.875 11.0585 21.875H6.68351V13.125Z" fill="white"/>
</svg>
