<svg width="699" height="852" viewBox="0 0 699 852" fill="none" xmlns="http://www.w3.org/2000/svg">
<mask id="mask0" mask-type="alpha" maskUnits="userSpaceOnUse" x="0" y="0" width="699" height="852">
<path d="M0 0H691C695.418 0 699 3.58172 699 8V844C699 848.418 695.418 852 691 852H0V0Z" fill="#FF0066"/>
</mask>
<g mask="url(#mask0)">
<path d="M0 0H691C695.418 0 699 3.58172 699 8V844C699 848.418 695.418 852 691 852H0V0Z" fill="#FF0066"/>
<circle cx="699.003" cy="673.712" r="148.405" fill="white"/>
<circle cx="671.137" cy="101.588" r="69.084" fill="white"/>
<circle cx="22.8697" cy="572.657" r="101.055" fill="white"/>
<circle cx="86.3066" cy="-14.4793" r="48.1191" fill="white"/>
<circle cx="242.607" cy="865.295" r="48.1191" fill="white"/>
<path d="M731.622 356.671C731.622 383.484 709.885 405.22 683.073 405.22C656.26 405.22 634.523 383.484 634.523 356.671C634.523 329.858 656.26 308.122 683.073 308.122C709.885 308.122 731.622 329.858 731.622 356.671Z" stroke="white" stroke-width="17"/>
<path d="M282.358 7.62939e-06C282.358 22.4361 264.17 40.6242 241.734 40.6242C219.297 40.6242 201.109 22.4361 201.109 7.62939e-06C201.109 -22.4361 219.297 -40.6241 241.734 -40.6241C264.17 -40.6241 282.358 -22.4361 282.358 7.62939e-06Z" stroke="white" stroke-width="17"/>
<path fill-rule="evenodd" clip-rule="evenodd" d="M452.348 934.267C490.44 934.267 521.32 903.387 521.32 865.295C521.32 827.203 490.44 796.324 452.348 796.324C414.256 796.324 383.377 827.203 383.377 865.295C383.377 903.387 414.256 934.267 452.348 934.267ZM452.348 963.544C506.609 963.544 550.597 919.556 550.597 865.295C550.597 811.034 506.609 767.047 452.348 767.047C398.087 767.047 354.1 811.034 354.1 865.295C354.1 919.556 398.087 963.544 452.348 963.544Z" fill="white"/>
<path fill-rule="evenodd" clip-rule="evenodd" d="M0.000511169 220.648C38.0925 220.648 68.9721 189.769 68.9721 151.677C68.9721 113.585 38.0925 82.7052 0.000511169 82.7052C-38.0914 82.7052 -68.9711 113.585 -68.9711 151.677C-68.9711 189.769 -38.0914 220.648 0.000511169 220.648ZM0.000511169 249.925C54.2617 249.925 98.2491 205.938 98.2491 151.677C98.2491 97.4156 54.2617 53.4282 0.000511169 53.4282C-54.2607 53.4282 -98.248 97.4156 -98.248 151.677C-98.248 205.938 -54.2607 249.925 0.000511169 249.925Z" fill="white"/>
<path d="M284.735 327.635C284.62 328.815 284.187 329.707 283.465 330.34C282.801 330.916 281.992 331.491 281.097 332.124C279.913 333.88 278.643 335.549 277.286 337.189C275.986 338.829 274.629 340.441 273.214 342.081C271.857 343.664 270.5 345.275 269.143 346.973C267.844 348.613 266.66 350.311 265.592 352.124C264.292 353.074 263.137 354.138 262.127 355.318C261.116 356.441 260.134 357.62 259.153 358.858C258.2 360.038 257.247 361.275 256.265 362.57C255.37 363.807 254.417 364.987 253.378 366.109C253.724 367.462 254.302 368.527 255.168 369.304C256.005 370.081 256.958 370.829 257.969 371.491C258.979 372.095 259.961 372.786 260.943 373.505C261.925 374.224 262.646 375.203 263.137 376.383C264.841 376.67 266.458 377.102 268.046 377.735C269.692 378.311 271.366 378.57 273.128 378.57C274.427 378.57 275.669 378.224 276.852 377.562C277.372 377.678 277.863 377.879 278.383 378.167C278.96 378.455 279.538 378.598 280.173 378.598C280.693 378.598 281.184 378.339 281.703 377.85C281.819 378.023 281.934 378.253 282.05 378.512C282.165 378.742 282.367 378.857 282.656 378.857C282.772 378.857 282.858 378.857 282.916 378.857C283.032 378.8 283.118 378.771 283.176 378.771V380.124C283.176 380.642 283.205 381.131 283.263 381.649C283.32 382.109 283.436 382.57 283.609 383.088C283.147 383.088 282.801 383.174 282.512 383.347L281.761 383.865C281.53 384.037 281.241 384.181 280.924 384.296C280.577 384.411 280.144 384.411 279.567 384.296C279.22 384.354 278.989 384.526 278.903 384.814C278.845 385.102 278.672 385.332 278.383 385.476C277.979 385.764 277.459 385.908 276.766 385.908C276.16 385.908 275.582 386.052 275.062 386.339L272.175 386.512C271.222 386.57 270.269 386.598 269.287 386.598C268.71 386.598 268.046 386.598 267.266 386.598C266.487 386.541 265.678 386.483 264.899 386.426C264.119 386.311 263.339 386.195 262.618 386.08C261.896 385.908 261.26 385.706 260.77 385.505C258.922 384.613 257.103 383.49 255.341 382.138C253.58 380.785 251.905 379.462 250.259 378.167L248.902 376.987C248.44 376.584 247.978 376.239 247.459 375.893C247.401 375.836 247.256 375.807 247.025 375.807C246.737 375.807 246.477 375.865 246.275 375.98C246.102 376.095 245.899 376.152 245.668 376.152C245.437 376.152 245.322 376.066 245.322 375.893C243.561 377.591 241.944 379.375 240.413 381.303L235.851 387.03C235.851 387.49 235.967 387.836 236.198 388.123L236.862 388.872C237.093 389.102 237.295 389.361 237.468 389.62C237.699 389.908 237.815 390.253 237.815 390.713C237.815 391.059 237.786 391.318 237.728 391.548C237.208 391.721 236.631 391.836 235.938 391.893C235.274 391.951 234.552 392.037 233.83 392.152C233.166 392.325 232.531 392.526 231.982 392.756C231.405 393.044 231.029 393.447 230.798 394.023C230.394 393.908 230.047 393.792 229.701 393.677C229.412 393.562 229.066 393.533 228.604 393.591C228.142 393.015 227.709 392.469 227.247 391.893C226.727 391.289 226.294 390.627 225.89 389.965C225.832 389.562 225.803 389.217 225.803 388.872C225.716 388.354 225.688 387.951 225.688 387.577C225.688 386.282 225.89 385.131 226.294 384.124C226.698 383.059 227.131 381.965 227.651 380.843C228.604 380.383 229.47 379.922 230.278 379.404C231.116 378.829 231.693 378.023 231.982 376.958C232.704 376.901 233.31 376.67 233.772 376.296C234.292 375.836 234.725 375.375 235.129 374.858C235.591 374.34 236.024 373.908 236.486 373.505C236.948 373.102 237.555 372.872 238.334 372.757C238.334 372.642 238.306 372.527 238.248 372.412C238.248 372.296 238.248 372.181 238.248 372.066C238.248 371.663 238.334 371.404 238.508 371.232C238.681 371.001 238.883 370.829 239.114 370.714C239.403 370.541 239.663 370.397 239.865 370.282C240.153 370.167 240.384 369.966 240.529 369.678C240.298 369.073 240.038 368.469 239.778 367.894C239.547 367.318 239.258 366.8 238.941 366.282C238.363 365.448 237.786 364.613 237.151 363.836L235.303 361.476C235.014 361.074 234.667 360.757 234.205 360.469C233.801 360.124 233.484 359.75 233.195 359.289C232.906 358.829 232.733 358.34 232.675 357.764C232.617 357.189 232.473 356.7 232.242 356.239C231.953 355.664 231.607 355.174 231.145 354.714C230.74 354.196 230.538 353.592 230.538 352.872C230.538 352.469 230.625 352.124 230.798 351.779C230.192 351.174 229.73 350.426 229.441 349.592C229.152 348.7 229.008 347.808 229.008 346.973C229.008 346.196 229.124 345.39 229.355 344.613C229.586 343.779 229.961 343.002 230.452 342.34H231.174C231.462 342.34 231.607 342.254 231.607 342.081C231.953 342.311 232.3 342.513 232.704 342.685C233.166 342.858 233.397 343.175 233.455 343.606C233.974 343.664 234.465 343.75 234.985 343.865L236.515 344.211C237.41 345.563 238.248 346.944 238.97 348.354C239.691 349.764 240.442 351.174 241.164 352.556C241.944 353.966 242.781 355.347 243.618 356.7C244.456 358.052 245.409 359.318 246.506 360.498C247.343 360.153 248.094 359.664 248.7 358.973C249.307 358.311 249.884 357.592 250.404 356.872C250.981 356.153 251.559 355.433 252.194 354.772C252.8 354.11 253.551 353.592 254.388 353.246C254.331 353.189 254.302 353.102 254.302 352.987C254.302 352.7 254.388 352.498 254.562 352.383C254.793 352.21 254.85 351.894 254.735 351.462C255.861 350.685 256.9 349.822 257.853 348.93C258.806 348.038 259.499 346.858 259.874 345.39H261.058C262.415 343.577 263.773 341.793 265.13 340.009C266.544 338.196 268.133 336.585 269.865 335.117V333.937C270.76 333.362 271.569 332.729 272.233 332.009C272.897 331.232 273.561 330.427 274.167 329.65C274.774 328.815 275.38 327.952 275.957 327.117C276.564 326.283 277.286 325.506 278.065 324.844C278.643 325.132 279.22 325.333 279.855 325.448C280.462 325.563 281.068 325.707 281.646 325.88C282.252 326.053 282.829 326.283 283.349 326.542C283.869 326.743 284.331 327.117 284.735 327.635Z" fill="white"/>
<path d="M313.87 355.865C312.571 355.865 311.329 356.066 310.116 356.498C308.962 356.901 307.951 357.534 307.085 358.368C306.247 359.145 305.583 360.124 305.064 361.332C304.544 362.512 304.284 363.922 304.284 365.533C304.284 368.756 305.208 371.145 307.027 372.756C308.904 374.368 311.156 375.174 313.812 375.174C315.372 375.174 316.729 375.001 317.855 374.627C319.01 374.253 320.02 373.879 320.887 373.447C321.926 374.166 322.706 374.972 323.225 375.864C323.745 376.699 324.005 377.706 324.005 378.886C324.005 381.015 322.994 382.655 320.973 383.864C318.952 385.015 316.151 385.562 312.542 385.562C309.279 385.562 306.305 385.101 303.649 384.152C300.992 383.173 298.711 381.821 296.777 380.123C294.9 378.368 293.456 376.267 292.417 373.821C291.377 371.375 290.857 368.699 290.857 365.735C290.857 362.311 291.406 359.347 292.503 356.785C293.658 354.196 295.189 352.066 297.094 350.426C299.029 348.757 301.223 347.519 303.735 346.685C306.276 345.85 308.962 345.448 311.762 345.448C315.516 345.448 318.403 346.109 320.425 347.462C322.446 348.814 323.456 350.541 323.456 352.67C323.456 353.649 323.225 354.598 322.763 355.462C322.301 356.296 321.753 357.016 321.118 357.649C320.222 357.246 319.154 356.843 317.913 356.469C316.671 356.066 315.314 355.865 313.87 355.865Z" fill="white"/>
<path d="M394.776 346.024C396.913 346.024 398.992 346.341 401.013 346.945C403.092 347.52 404.882 348.384 406.384 349.592C407.943 348.556 409.675 347.693 411.61 347.031C413.573 346.369 415.941 346.024 418.713 346.024C420.677 346.024 422.611 346.283 424.488 346.801C426.394 347.319 428.097 348.154 429.541 349.305C431.042 350.398 432.255 351.866 433.121 353.736C434.016 355.549 434.449 357.765 434.449 360.412V384.901C433.93 385.045 433.092 385.218 431.966 385.361C430.869 385.505 429.743 385.592 428.53 385.592C427.375 385.592 426.336 385.505 425.412 385.361C424.517 385.218 423.766 384.901 423.16 384.441C422.524 383.98 422.034 383.347 421.687 382.57C421.369 381.736 421.225 380.671 421.225 379.376V360.815C421.225 359.261 420.792 358.139 419.897 357.477C419.002 356.758 417.818 356.384 416.317 356.384C415.595 356.384 414.815 356.556 413.978 356.93C413.14 357.247 412.534 357.592 412.101 357.938C412.159 358.139 412.188 358.34 412.188 358.571C412.188 358.714 412.188 358.887 412.188 359.031V384.901C411.61 385.045 410.744 385.218 409.618 385.361C408.52 385.505 407.423 385.592 406.268 385.592C405.113 385.592 404.074 385.505 403.15 385.361C402.255 385.218 401.504 384.901 400.898 384.441C400.262 383.98 399.772 383.347 399.425 382.57C399.108 381.736 398.963 380.671 398.963 379.376V360.815C398.963 359.261 398.472 358.139 397.491 357.477C396.567 356.758 395.412 356.384 394.055 356.384C393.131 356.384 392.322 356.527 391.629 356.844C390.965 357.103 390.388 357.362 389.926 357.621V384.901C389.406 385.045 388.568 385.218 387.442 385.361C386.345 385.505 385.219 385.592 384.006 385.592C382.851 385.592 381.812 385.505 380.888 385.361C379.993 385.218 379.242 384.901 378.636 384.441C378.001 383.98 377.51 383.347 377.163 382.57C376.846 381.736 376.701 380.671 376.701 379.376V355.923C376.701 354.513 376.99 353.42 377.567 352.585C378.203 351.751 379.011 350.974 380.051 350.254C381.812 349.017 384.006 348.01 386.605 347.233C389.175 346.427 391.918 346.024 394.776 346.024Z" fill="white"/>
<path d="M473.311 372.901C473.311 376.843 471.839 379.922 468.865 382.138C465.891 384.354 461.531 385.476 455.756 385.476C453.562 385.476 451.54 385.332 449.664 385.015C447.787 384.699 446.17 384.238 444.842 383.605C443.542 382.944 442.503 382.109 441.723 381.131C441.001 380.152 440.626 378.972 440.626 377.649C440.626 376.411 440.886 375.375 441.406 374.541C441.925 373.649 442.561 372.929 443.282 372.354C444.784 373.188 446.516 373.936 448.422 374.598C450.385 375.231 452.666 375.519 455.207 375.519C456.824 375.519 458.037 375.289 458.874 374.829C459.77 374.368 460.203 373.735 460.203 372.958C460.203 372.239 459.885 371.663 459.279 371.26C458.643 370.857 457.604 370.512 456.16 370.253L453.821 369.793C449.288 368.901 445.91 367.548 443.687 365.678C441.492 363.75 440.424 361.045 440.424 357.505C440.424 355.577 440.828 353.85 441.665 352.297C442.503 350.743 443.658 349.448 445.159 348.412C446.661 347.376 448.451 346.57 450.53 345.995C452.666 345.419 455.005 345.131 457.546 345.131C459.481 345.131 461.271 345.275 462.917 345.592C464.62 345.851 466.122 346.254 467.363 346.829C468.605 347.405 469.587 348.153 470.337 349.074C471.059 349.966 471.435 351.03 471.435 352.268C471.435 353.448 471.204 354.484 470.742 355.376C470.337 356.21 469.789 356.901 469.096 357.476C468.692 357.217 468.056 356.958 467.219 356.699C466.382 356.383 465.487 356.124 464.476 355.922C463.494 355.663 462.484 355.462 461.444 355.289C460.462 355.145 459.539 355.059 458.73 355.059C457.026 355.059 455.698 355.261 454.745 355.692C453.821 356.066 453.331 356.642 453.331 357.476C453.331 358.052 453.59 358.512 454.11 358.886C454.63 359.26 455.612 359.577 457.084 359.894L459.51 360.44C464.505 361.591 468.028 363.174 470.106 365.188C472.272 367.174 473.311 369.735 473.311 372.901Z" fill="white"/>
<path d="M370.549 385.447H350.337C339.191 385.447 330.125 376.411 330.125 365.303C330.125 354.195 339.191 345.16 350.337 345.16C361.482 345.16 370.549 354.195 370.549 365.303V385.447ZM350.337 348.037C340.78 348.037 333.012 355.778 333.012 365.303C333.012 374.828 340.78 382.569 350.337 382.569H367.661V365.303C367.661 355.778 359.894 348.037 350.337 348.037Z" fill="white"/>
<path d="M346.409 351.318C340.345 353.016 335.898 358.57 335.898 365.159C335.898 373.102 342.366 379.548 350.336 379.548H364.773V365.159C364.773 358.57 360.326 353.016 354.262 351.318C353.569 352.786 352.068 353.793 350.336 353.793C348.603 353.793 347.102 352.786 346.409 351.318Z" fill="white"/>
<path d="M350.336 356.671C345.572 356.671 341.674 360.555 341.674 365.304C341.674 370.052 345.572 373.937 350.336 373.937C355.1 373.937 358.998 370.052 358.998 365.304C358.998 360.555 355.1 356.671 350.336 356.671ZM350.336 371.059C347.737 371.059 345.543 369.361 344.821 367.001C345.543 367.548 346.467 367.893 347.449 367.893C349.845 367.893 351.78 365.965 351.78 363.577C351.78 361.822 350.74 360.325 349.239 359.663C349.585 359.606 349.961 359.548 350.336 359.548C353.512 359.548 356.111 362.138 356.111 365.304C356.111 368.469 353.512 371.059 350.336 371.059Z" fill="#FF0066"/>
<path d="M110.027 460.156H107.062L99.457 448.051V460.156H96.4922V443.094H99.457L107.086 455.246V443.094H110.027V460.156ZM123.337 458.914C122.502 459.898 121.314 460.39 119.775 460.39C118.4 460.39 117.357 459.988 116.646 459.183C115.943 458.379 115.591 457.215 115.591 455.691V447.476H118.439V455.656C118.439 457.265 119.107 458.07 120.443 458.07C121.826 458.07 122.759 457.574 123.244 456.582V447.476H126.091V460.156H123.408L123.337 458.914ZM134.421 460.156H131.573V442.156H134.421V460.156ZM142.962 460.156H140.114V442.156H142.962V460.156ZM156.049 460.156C155.924 459.914 155.815 459.519 155.721 458.972C154.815 459.918 153.705 460.39 152.393 460.39C151.12 460.39 150.08 460.027 149.276 459.301C148.471 458.574 148.069 457.676 148.069 456.605C148.069 455.254 148.569 454.219 149.569 453.5C150.577 452.773 152.014 452.41 153.881 452.41H155.627V451.578C155.627 450.922 155.444 450.398 155.077 450.008C154.709 449.609 154.151 449.41 153.401 449.41C152.752 449.41 152.221 449.574 151.807 449.902C151.393 450.222 151.186 450.633 151.186 451.133H148.338C148.338 450.437 148.569 449.789 149.03 449.187C149.491 448.578 150.116 448.101 150.905 447.758C151.702 447.414 152.588 447.242 153.565 447.242C155.049 447.242 156.233 447.617 157.116 448.367C157.998 449.109 158.452 450.156 158.475 451.508V457.226C158.475 458.367 158.635 459.277 158.955 459.957V460.156H156.049ZM152.92 458.105C153.483 458.105 154.01 457.969 154.502 457.695C155.002 457.422 155.377 457.054 155.627 456.594V454.203H154.092C153.037 454.203 152.245 454.386 151.713 454.754C151.182 455.121 150.916 455.64 150.916 456.312C150.916 456.859 151.096 457.297 151.455 457.625C151.823 457.945 152.311 458.105 152.92 458.105ZM177.818 460.39C176.013 460.39 174.548 459.824 173.423 458.691C172.306 457.551 171.748 456.035 171.748 454.144V453.793C171.748 452.527 171.99 451.398 172.474 450.406C172.966 449.406 173.654 448.629 174.537 448.074C175.42 447.519 176.404 447.242 177.49 447.242C179.216 447.242 180.548 447.793 181.486 448.894C182.431 449.996 182.904 451.554 182.904 453.57V454.719H174.619C174.705 455.765 175.052 456.594 175.662 457.203C176.279 457.812 177.052 458.117 177.982 458.117C179.287 458.117 180.349 457.59 181.17 456.535L182.705 458C182.197 458.758 181.517 459.347 180.666 459.769C179.822 460.183 178.873 460.39 177.818 460.39ZM177.478 449.527C176.697 449.527 176.064 449.801 175.58 450.347C175.103 450.894 174.798 451.656 174.666 452.633H180.091V452.422C180.029 451.469 179.775 450.75 179.33 450.265C178.884 449.773 178.267 449.527 177.478 449.527ZM192.077 451.648L194.491 447.476H197.655L193.777 453.722L197.784 460.156H194.644L192.113 455.82L189.593 460.156H186.429L190.437 453.722L186.57 447.476H189.71L192.077 451.648ZM215.58 458.117C216.291 458.117 216.881 457.91 217.35 457.496C217.819 457.082 218.069 456.57 218.1 455.961H220.784C220.752 456.75 220.506 457.488 220.045 458.176C219.584 458.855 218.959 459.394 218.17 459.793C217.381 460.191 216.53 460.39 215.616 460.39C213.842 460.39 212.436 459.816 211.397 458.668C210.358 457.519 209.838 455.933 209.838 453.91V453.617C209.838 451.687 210.354 450.144 211.385 448.988C212.416 447.824 213.823 447.242 215.604 447.242C217.112 447.242 218.338 447.683 219.284 448.566C220.237 449.441 220.737 450.594 220.784 452.023H218.1C218.069 451.297 217.819 450.699 217.35 450.23C216.889 449.761 216.299 449.527 215.58 449.527C214.659 449.527 213.948 449.863 213.448 450.535C212.948 451.199 212.694 452.211 212.686 453.57V454.027C212.686 455.402 212.932 456.429 213.424 457.109C213.924 457.781 214.643 458.117 215.58 458.117ZM228.363 460.156H225.516V447.476H228.363V460.156ZM225.34 444.183C225.34 443.746 225.477 443.383 225.75 443.094C226.031 442.804 226.43 442.66 226.945 442.66C227.461 442.66 227.859 442.804 228.141 443.094C228.422 443.383 228.562 443.746 228.562 444.183C228.562 444.613 228.422 444.972 228.141 445.261C227.859 445.543 227.461 445.683 226.945 445.683C226.43 445.683 226.031 445.543 225.75 445.261C225.477 444.972 225.34 444.613 225.34 444.183ZM236.904 460.156H234.056V442.156H236.904V460.156ZM245.445 460.156H242.597V442.156H245.445V460.156ZM258.637 458.914C257.802 459.898 256.614 460.39 255.075 460.39C253.7 460.39 252.657 459.988 251.946 459.183C251.243 458.379 250.891 457.215 250.891 455.691V447.476H253.739V455.656C253.739 457.265 254.407 458.07 255.743 458.07C257.126 458.07 258.059 457.574 258.544 456.582V447.476H261.391V460.156H258.708L258.637 458.914ZM269.37 447.476L269.452 448.801C270.342 447.761 271.561 447.242 273.108 447.242C274.803 447.242 275.963 447.89 276.588 449.187C277.51 447.89 278.807 447.242 280.479 447.242C281.877 447.242 282.916 447.629 283.596 448.402C284.284 449.176 284.635 450.316 284.651 451.824V460.156H281.803V451.906C281.803 451.101 281.627 450.511 281.276 450.136C280.924 449.761 280.342 449.574 279.53 449.574C278.881 449.574 278.35 449.75 277.936 450.101C277.53 450.445 277.245 450.898 277.08 451.461L277.092 460.156H274.245V451.812C274.205 450.32 273.444 449.574 271.959 449.574C270.819 449.574 270.01 450.039 269.534 450.969V460.156H266.686V447.476H269.37ZM303.935 460.39C302.13 460.39 300.666 459.824 299.541 458.691C298.423 457.551 297.865 456.035 297.865 454.144V453.793C297.865 452.527 298.107 451.398 298.591 450.406C299.084 449.406 299.771 448.629 300.654 448.074C301.537 447.519 302.521 447.242 303.607 447.242C305.334 447.242 306.666 447.793 307.603 448.894C308.548 449.996 309.021 451.554 309.021 453.57V454.719H300.736C300.822 455.765 301.17 456.594 301.779 457.203C302.396 457.812 303.17 458.117 304.099 458.117C305.404 458.117 306.466 457.59 307.287 456.535L308.822 458C308.314 458.758 307.634 459.347 306.783 459.769C305.939 460.183 304.99 460.39 303.935 460.39ZM303.595 449.527C302.814 449.527 302.181 449.801 301.697 450.347C301.22 450.894 300.916 451.656 300.783 452.633H306.209V452.422C306.146 451.469 305.892 450.75 305.447 450.265C305.002 449.773 304.384 449.527 303.595 449.527ZM318.195 451.648L320.609 447.476H323.773L319.894 453.722L323.902 460.156H320.761L318.23 455.82L315.71 460.156H312.546L316.554 453.722L312.687 447.476H315.827L318.195 451.648ZM333.462 460.39C331.657 460.39 330.192 459.824 329.067 458.691C327.95 457.551 327.391 456.035 327.391 454.144V453.793C327.391 452.527 327.634 451.398 328.118 450.406C328.61 449.406 329.298 448.629 330.18 448.074C331.063 447.519 332.048 447.242 333.134 447.242C334.86 447.242 336.192 447.793 337.13 448.894C338.075 449.996 338.548 451.554 338.548 453.57V454.719H330.262C330.348 455.765 330.696 456.594 331.305 457.203C331.923 457.812 332.696 458.117 333.626 458.117C334.93 458.117 335.993 457.59 336.813 456.535L338.348 458C337.841 458.758 337.161 459.347 336.309 459.769C335.466 460.183 334.516 460.39 333.462 460.39ZM333.122 449.527C332.341 449.527 331.708 449.801 331.223 450.347C330.747 450.894 330.442 451.656 330.309 452.633H335.735V452.422C335.673 451.469 335.419 450.75 334.973 450.265C334.528 449.773 333.911 449.527 333.122 449.527ZM349.807 450.078C349.432 450.015 349.045 449.984 348.647 449.984C347.342 449.984 346.463 450.484 346.01 451.484V460.156H343.163V447.476H345.881L345.952 448.894C346.639 447.793 347.592 447.242 348.811 447.242C349.217 447.242 349.553 447.297 349.819 447.406L349.807 450.078ZM358.98 458.117C359.691 458.117 360.281 457.91 360.75 457.496C361.219 457.082 361.469 456.57 361.5 455.961H364.184C364.152 456.75 363.906 457.488 363.445 458.176C362.984 458.855 362.359 459.394 361.57 459.793C360.781 460.191 359.93 460.39 359.016 460.39C357.242 460.39 355.836 459.816 354.797 458.668C353.758 457.519 353.238 455.933 353.238 453.91V453.617C353.238 451.687 353.754 450.144 354.785 448.988C355.816 447.824 357.223 447.242 359.004 447.242C360.512 447.242 361.738 447.683 362.684 448.566C363.637 449.441 364.137 450.594 364.184 452.023H361.5C361.469 451.297 361.219 450.699 360.75 450.23C360.289 449.761 359.699 449.527 358.98 449.527C358.059 449.527 357.348 449.863 356.848 450.535C356.348 451.199 356.094 452.211 356.086 453.57V454.027C356.086 455.402 356.332 456.429 356.824 457.109C357.324 457.781 358.043 458.117 358.98 458.117ZM371.763 460.156H368.916V447.476H371.763V460.156ZM368.74 444.183C368.74 443.746 368.877 443.383 369.15 443.094C369.431 442.804 369.83 442.66 370.345 442.66C370.861 442.66 371.259 442.804 371.541 443.094C371.822 443.383 371.962 443.746 371.962 444.183C371.962 444.613 371.822 444.972 371.541 445.261C371.259 445.543 370.861 445.683 370.345 445.683C369.83 445.683 369.431 445.543 369.15 445.261C368.877 444.972 368.74 444.613 368.74 444.183ZM380.843 444.394V447.476H383.081V449.586H380.843V456.664C380.843 457.148 380.937 457.5 381.124 457.719C381.32 457.929 381.663 458.035 382.155 458.035C382.484 458.035 382.816 457.996 383.152 457.918V460.121C382.503 460.301 381.878 460.39 381.277 460.39C379.089 460.39 377.995 459.183 377.995 456.769V449.586H375.909V447.476H377.995V444.394H380.843ZM395.243 460.156C395.118 459.914 395.009 459.519 394.915 458.972C394.009 459.918 392.899 460.39 391.587 460.39C390.313 460.39 389.274 460.027 388.47 459.301C387.665 458.574 387.263 457.676 387.263 456.605C387.263 455.254 387.763 454.219 388.763 453.5C389.77 452.773 391.208 452.41 393.075 452.41H394.821V451.578C394.821 450.922 394.638 450.398 394.27 450.008C393.903 449.609 393.345 449.41 392.595 449.41C391.946 449.41 391.415 449.574 391.001 449.902C390.587 450.222 390.38 450.633 390.38 451.133H387.532C387.532 450.437 387.763 449.789 388.223 449.187C388.684 448.578 389.309 448.101 390.098 447.758C390.895 447.414 391.782 447.242 392.759 447.242C394.243 447.242 395.427 447.617 396.309 448.367C397.192 449.109 397.645 450.156 397.669 451.508V457.226C397.669 458.367 397.829 459.277 398.149 459.957V460.156H395.243ZM392.114 458.105C392.677 458.105 393.204 457.969 393.696 457.695C394.196 457.422 394.571 457.054 394.821 456.594V454.203H393.286C392.231 454.203 391.438 454.386 390.907 454.754C390.376 455.121 390.11 455.64 390.11 456.312C390.11 456.859 390.29 457.297 390.649 457.625C391.016 457.945 391.505 458.105 392.114 458.105ZM406.62 444.394V447.476H408.858V449.586H406.62V456.664C406.62 457.148 406.713 457.5 406.901 457.719C407.096 457.929 407.44 458.035 407.932 458.035C408.26 458.035 408.592 457.996 408.928 457.918V460.121C408.28 460.301 407.655 460.39 407.053 460.39C404.866 460.39 403.772 459.183 403.772 456.769V449.586H401.686V447.476H403.772V444.394H406.62ZM416.473 460.156H413.625V447.476H416.473V460.156ZM413.449 444.183C413.449 443.746 413.586 443.383 413.859 443.094C414.141 442.804 414.539 442.66 415.055 442.66C415.57 442.66 415.969 442.804 416.25 443.094C416.531 443.383 416.672 443.746 416.672 444.183C416.672 444.613 416.531 444.972 416.25 445.261C415.969 445.543 415.57 445.683 415.055 445.683C414.539 445.683 414.141 445.543 413.859 445.261C413.586 444.972 413.449 444.613 413.449 444.183ZM421.451 453.699C421.451 452.457 421.697 451.34 422.189 450.347C422.681 449.347 423.373 448.582 424.263 448.051C425.154 447.511 426.177 447.242 427.334 447.242C429.045 447.242 430.431 447.793 431.494 448.894C432.564 449.996 433.142 451.457 433.228 453.277L433.24 453.945C433.24 455.195 432.998 456.312 432.513 457.297C432.037 458.281 431.349 459.043 430.451 459.582C429.56 460.121 428.529 460.39 427.357 460.39C425.568 460.39 424.134 459.797 423.056 458.609C421.986 457.414 421.451 455.824 421.451 453.84V453.699ZM424.298 453.945C424.298 455.25 424.568 456.273 425.107 457.015C425.646 457.75 426.396 458.117 427.357 458.117C428.318 458.117 429.064 457.742 429.595 456.992C430.134 456.242 430.404 455.144 430.404 453.699C430.404 452.418 430.127 451.402 429.572 450.652C429.025 449.902 428.279 449.527 427.334 449.527C426.404 449.527 425.666 449.898 425.119 450.64C424.572 451.375 424.298 452.476 424.298 453.945ZM440.691 447.476L440.773 448.941C441.71 447.808 442.941 447.242 444.464 447.242C447.105 447.242 448.448 448.754 448.495 451.777V460.156H445.648V451.941C445.648 451.136 445.472 450.543 445.12 450.16C444.777 449.769 444.21 449.574 443.421 449.574C442.273 449.574 441.417 450.094 440.855 451.133V460.156H438.007V447.476H440.691ZM467.768 460.39C465.963 460.39 464.498 459.824 463.373 458.691C462.256 457.551 461.698 456.035 461.698 454.144V453.793C461.698 452.527 461.94 451.398 462.424 450.406C462.916 449.406 463.604 448.629 464.487 448.074C465.37 447.519 466.354 447.242 467.44 447.242C469.166 447.242 470.498 447.793 471.436 448.894C472.381 449.996 472.854 451.554 472.854 453.57V454.719H464.569C464.655 455.765 465.002 456.594 465.612 457.203C466.229 457.812 467.002 458.117 467.932 458.117C469.237 458.117 470.299 457.59 471.12 456.535L472.655 458C472.147 458.758 471.467 459.347 470.616 459.769C469.772 460.183 468.823 460.39 467.768 460.39ZM467.428 449.527C466.647 449.527 466.014 449.801 465.53 450.347C465.053 450.894 464.748 451.656 464.616 452.633H470.041V452.422C469.979 451.469 469.725 450.75 469.28 450.265C468.834 449.773 468.217 449.527 467.428 449.527ZM480.504 460.156H477.656V442.156H480.504V460.156ZM489.045 460.156H486.197V447.476H489.045V460.156ZM486.021 444.183C486.021 443.746 486.158 443.383 486.431 443.094C486.712 442.804 487.111 442.66 487.627 442.66C488.142 442.66 488.541 442.804 488.822 443.094C489.103 443.383 489.244 443.746 489.244 444.183C489.244 444.613 489.103 444.972 488.822 445.261C488.541 445.543 488.142 445.683 487.627 445.683C487.111 445.683 486.712 445.543 486.431 445.261C486.158 444.972 486.021 444.613 486.021 444.183ZM498.124 444.394V447.476H500.362V449.586H498.124V456.664C498.124 457.148 498.218 457.5 498.405 457.719C498.601 457.929 498.945 458.035 499.437 458.035C499.765 458.035 500.097 457.996 500.433 457.918V460.121C499.784 460.301 499.159 460.39 498.558 460.39C496.37 460.39 495.277 459.183 495.277 456.769V449.586H493.191V447.476H495.277V444.394H498.124ZM517.795 456.547L520.479 447.476H523.42L519.026 460.156H516.553L512.123 447.476H515.077L517.795 456.547ZM533.027 460.39C531.223 460.39 529.758 459.824 528.633 458.691C527.516 457.551 526.957 456.035 526.957 454.144V453.793C526.957 452.527 527.199 451.398 527.684 450.406C528.176 449.406 528.863 448.629 529.746 448.074C530.629 447.519 531.613 447.242 532.699 447.242C534.426 447.242 535.758 447.793 536.695 448.894C537.641 449.996 538.113 451.554 538.113 453.57V454.719H529.828C529.914 455.765 530.262 456.594 530.871 457.203C531.488 457.812 532.262 458.117 533.191 458.117C534.496 458.117 535.559 457.59 536.379 456.535L537.914 458C537.406 458.758 536.727 459.347 535.875 459.769C535.031 460.183 534.082 460.39 533.027 460.39ZM532.688 449.527C531.906 449.527 531.273 449.801 530.789 450.347C530.312 450.894 530.008 451.656 529.875 452.633H535.301V452.422C535.238 451.469 534.984 450.75 534.539 450.265C534.094 449.773 533.477 449.527 532.688 449.527ZM545.377 447.476L545.459 448.941C546.396 447.808 547.627 447.242 549.15 447.242C551.791 447.242 553.134 448.754 553.181 451.777V460.156H550.334V451.941C550.334 451.136 550.158 450.543 549.806 450.16C549.462 449.769 548.896 449.574 548.107 449.574C546.959 449.574 546.103 450.094 545.541 451.133V460.156H542.693V447.476H545.377ZM561.523 460.156H558.675V447.476H561.523V460.156ZM558.499 444.183C558.499 443.746 558.636 443.383 558.909 443.094C559.191 442.804 559.589 442.66 560.105 442.66C560.62 442.66 561.019 442.804 561.3 443.094C561.581 443.383 561.722 443.746 561.722 444.183C561.722 444.613 561.581 444.972 561.3 445.261C561.019 445.543 560.62 445.683 560.105 445.683C559.589 445.683 559.191 445.543 558.909 445.261C558.636 444.972 558.499 444.613 558.499 444.183ZM574.61 460.156C574.485 459.914 574.376 459.519 574.282 458.972C573.376 459.918 572.266 460.39 570.954 460.39C569.68 460.39 568.641 460.027 567.837 459.301C567.032 458.574 566.63 457.676 566.63 456.605C566.63 455.254 567.13 454.219 568.13 453.5C569.138 452.773 570.575 452.41 572.442 452.41H574.188V451.578C574.188 450.922 574.005 450.398 573.638 450.008C573.27 449.609 572.712 449.41 571.962 449.41C571.313 449.41 570.782 449.574 570.368 449.902C569.954 450.222 569.747 450.633 569.747 451.133H566.899C566.899 450.437 567.13 449.789 567.591 449.187C568.052 448.578 568.677 448.101 569.466 447.758C570.263 447.414 571.149 447.242 572.126 447.242C573.61 447.242 574.794 447.617 575.677 448.367C576.559 449.109 577.013 450.156 577.036 451.508V457.226C577.036 458.367 577.196 459.277 577.516 459.957V460.156H574.61ZM571.481 458.105C572.044 458.105 572.571 457.969 573.063 457.695C573.563 457.422 573.938 457.054 574.188 456.594V454.203H572.653C571.598 454.203 570.805 454.386 570.274 454.754C569.743 455.121 569.477 455.64 569.477 456.312C569.477 456.859 569.657 457.297 570.016 457.625C570.384 457.945 570.872 458.105 571.481 458.105ZM585.096 447.476L585.178 448.801C586.069 447.761 587.288 447.242 588.834 447.242C590.53 447.242 591.69 447.89 592.315 449.187C593.237 447.89 594.534 447.242 596.205 447.242C597.604 447.242 598.643 447.629 599.323 448.402C600.01 449.176 600.362 450.316 600.377 451.824V460.156H597.53V451.906C597.53 451.101 597.354 450.511 597.002 450.136C596.651 449.761 596.069 449.574 595.256 449.574C594.608 449.574 594.077 449.75 593.663 450.101C593.256 450.445 592.971 450.898 592.807 451.461L592.819 460.156H589.971V451.812C589.932 450.32 589.17 449.574 587.686 449.574C586.545 449.574 585.737 450.039 585.26 450.969V460.156H582.413V447.476H585.096ZM101.58 483.722C101.58 481.769 102.034 480.203 102.94 479.023C103.846 477.836 105.061 477.242 106.584 477.242C107.928 477.242 109.014 477.711 109.842 478.648V472.156H112.69V490.156H110.112L109.971 488.844C109.12 489.875 107.983 490.39 106.561 490.39C105.077 490.39 103.873 489.793 102.952 488.597C102.037 487.402 101.58 485.777 101.58 483.722ZM104.428 483.969C104.428 485.258 104.674 486.265 105.166 486.992C105.666 487.711 106.373 488.07 107.287 488.07C108.452 488.07 109.303 487.551 109.842 486.511V481.097C109.319 480.082 108.475 479.574 107.311 479.574C106.389 479.574 105.678 479.941 105.178 480.676C104.678 481.402 104.428 482.5 104.428 483.969ZM117.527 483.699C117.527 482.457 117.773 481.34 118.266 480.347C118.758 479.347 119.449 478.582 120.34 478.051C121.23 477.511 122.254 477.242 123.41 477.242C125.121 477.242 126.508 477.793 127.57 478.894C128.641 479.996 129.219 481.457 129.305 483.277L129.316 483.945C129.316 485.195 129.074 486.312 128.59 487.297C128.113 488.281 127.426 489.043 126.527 489.582C125.637 490.121 124.605 490.39 123.434 490.39C121.645 490.39 120.211 489.797 119.133 488.609C118.062 487.414 117.527 485.824 117.527 483.84V483.699ZM120.375 483.945C120.375 485.25 120.645 486.273 121.184 487.015C121.723 487.75 122.473 488.117 123.434 488.117C124.395 488.117 125.141 487.742 125.672 486.992C126.211 486.242 126.48 485.144 126.48 483.699C126.48 482.418 126.203 481.402 125.648 480.652C125.102 479.902 124.355 479.527 123.41 479.527C122.48 479.527 121.742 479.898 121.195 480.64C120.648 481.375 120.375 482.476 120.375 483.945ZM150.077 490.156C149.952 489.914 149.843 489.519 149.749 488.972C148.843 489.918 147.734 490.39 146.421 490.39C145.148 490.39 144.109 490.027 143.304 489.301C142.499 488.574 142.097 487.676 142.097 486.605C142.097 485.254 142.597 484.219 143.597 483.5C144.605 482.773 146.042 482.41 147.909 482.41H149.655V481.578C149.655 480.922 149.472 480.398 149.105 480.008C148.737 479.609 148.179 479.41 147.429 479.41C146.78 479.41 146.249 479.574 145.835 479.902C145.421 480.222 145.214 480.633 145.214 481.133H142.366C142.366 480.437 142.597 479.789 143.058 479.187C143.519 478.578 144.144 478.101 144.933 477.758C145.73 477.414 146.616 477.242 147.593 477.242C149.077 477.242 150.261 477.617 151.144 478.367C152.027 479.109 152.48 480.156 152.503 481.508V487.226C152.503 488.367 152.663 489.277 152.984 489.957V490.156H150.077ZM146.948 488.105C147.511 488.105 148.038 487.969 148.53 487.695C149.03 487.422 149.405 487.054 149.655 486.594V484.203H148.12C147.066 484.203 146.273 484.386 145.741 484.754C145.21 485.121 144.945 485.64 144.945 486.312C144.945 486.859 145.124 487.297 145.484 487.625C145.851 487.945 146.339 488.105 146.948 488.105ZM157.352 483.722C157.352 481.769 157.805 480.203 158.712 479.023C159.618 477.836 160.833 477.242 162.356 477.242C163.7 477.242 164.786 477.711 165.614 478.648V472.156H168.462V490.156H165.884L165.743 488.844C164.891 489.875 163.755 490.39 162.333 490.39C160.848 490.39 159.645 489.793 158.723 488.597C157.809 487.402 157.352 485.777 157.352 483.722ZM160.2 483.969C160.2 485.258 160.446 486.265 160.938 486.992C161.438 487.711 162.145 488.07 163.059 488.07C164.223 488.07 165.075 487.551 165.614 486.511V481.097C165.091 480.082 164.247 479.574 163.083 479.574C162.161 479.574 161.45 479.941 160.95 480.676C160.45 481.402 160.2 482.5 160.2 483.969ZM181.676 483.722C181.676 481.769 182.129 480.203 183.035 479.023C183.941 477.836 185.156 477.242 186.68 477.242C188.023 477.242 189.109 477.711 189.937 478.648V472.156H192.785V490.156H190.207L190.066 488.844C189.215 489.875 188.078 490.39 186.656 490.39C185.172 490.39 183.969 489.793 183.047 488.597C182.133 487.402 181.676 485.777 181.676 483.722ZM184.523 483.969C184.523 485.258 184.77 486.265 185.262 486.992C185.762 487.711 186.469 488.07 187.383 488.07C188.547 488.07 189.398 487.551 189.937 486.511V481.097C189.414 480.082 188.57 479.574 187.406 479.574C186.484 479.574 185.773 479.941 185.273 480.676C184.773 481.402 184.523 482.5 184.523 483.969ZM197.623 483.699C197.623 482.457 197.869 481.34 198.361 480.347C198.853 479.347 199.545 478.582 200.435 478.051C201.326 477.511 202.349 477.242 203.505 477.242C205.216 477.242 206.603 477.793 207.666 478.894C208.736 479.996 209.314 481.457 209.4 483.277L209.412 483.945C209.412 485.195 209.17 486.312 208.685 487.297C208.209 488.281 207.521 489.043 206.623 489.582C205.732 490.121 204.701 490.39 203.529 490.39C201.74 490.39 200.306 489.797 199.228 488.609C198.158 487.414 197.623 485.824 197.623 483.84V483.699ZM200.47 483.945C200.47 485.25 200.74 486.273 201.279 487.015C201.818 487.75 202.568 488.117 203.529 488.117C204.49 488.117 205.236 487.742 205.767 486.992C206.306 486.242 206.576 485.144 206.576 483.699C206.576 482.418 206.298 481.402 205.744 480.652C205.197 479.902 204.451 479.527 203.505 479.527C202.576 479.527 201.837 479.898 201.291 480.64C200.744 481.375 200.47 482.476 200.47 483.945ZM217.249 490.156H214.402V472.156H217.249V490.156ZM222.227 483.699C222.227 482.457 222.473 481.34 222.966 480.347C223.458 479.347 224.149 478.582 225.04 478.051C225.93 477.511 226.954 477.242 228.11 477.242C229.821 477.242 231.208 477.793 232.27 478.894C233.341 479.996 233.919 481.457 234.005 483.277L234.016 483.945C234.016 485.195 233.774 486.312 233.29 487.297C232.813 488.281 232.126 489.043 231.227 489.582C230.337 490.121 229.305 490.39 228.134 490.39C226.345 490.39 224.911 489.797 223.833 488.609C222.762 487.414 222.227 485.824 222.227 483.84V483.699ZM225.075 483.945C225.075 485.25 225.345 486.273 225.884 487.015C226.423 487.75 227.173 488.117 228.134 488.117C229.095 488.117 229.841 487.742 230.372 486.992C230.911 486.242 231.18 485.144 231.18 483.699C231.18 482.418 230.903 481.402 230.348 480.652C229.802 479.902 229.055 479.527 228.11 479.527C227.18 479.527 226.442 479.898 225.895 480.64C225.348 481.375 225.075 482.476 225.075 483.945ZM245.463 480.078C245.088 480.015 244.702 479.984 244.303 479.984C242.998 479.984 242.12 480.484 241.666 481.484V490.156H238.819V477.476H241.537L241.608 478.894C242.295 477.793 243.248 477.242 244.467 477.242C244.873 477.242 245.209 477.297 245.475 477.406L245.463 480.078ZM255.012 490.39C253.207 490.39 251.742 489.824 250.617 488.691C249.5 487.551 248.941 486.035 248.941 484.144V483.793C248.941 482.527 249.184 481.398 249.668 480.406C250.16 479.406 250.848 478.629 251.73 478.074C252.613 477.519 253.598 477.242 254.684 477.242C256.41 477.242 257.742 477.793 258.68 478.894C259.625 479.996 260.098 481.554 260.098 483.57V484.719H251.812C251.898 485.765 252.246 486.594 252.855 487.203C253.473 487.812 254.246 488.117 255.176 488.117C256.48 488.117 257.543 487.59 258.363 486.535L259.898 488C259.391 488.758 258.711 489.347 257.859 489.769C257.016 490.183 256.066 490.39 255.012 490.39ZM254.672 479.527C253.891 479.527 253.258 479.801 252.773 480.347C252.297 480.894 251.992 481.656 251.859 482.633H257.285V482.422C257.223 481.469 256.969 480.75 256.523 480.265C256.078 479.773 255.461 479.527 254.672 479.527ZM275.773 477.476L275.855 478.801C276.745 477.761 277.964 477.242 279.511 477.242C281.206 477.242 282.366 477.89 282.991 479.187C283.913 477.89 285.21 477.242 286.882 477.242C288.28 477.242 289.32 477.629 289.999 478.402C290.687 479.176 291.038 480.316 291.054 481.824V490.156H288.206V481.906C288.206 481.101 288.03 480.511 287.679 480.136C287.327 479.761 286.745 479.574 285.933 479.574C285.284 479.574 284.753 479.75 284.339 480.101C283.933 480.445 283.648 480.898 283.484 481.461L283.495 490.156H280.648V481.812C280.609 480.32 279.847 479.574 278.362 479.574C277.222 479.574 276.413 480.039 275.937 480.969V490.156H273.089V477.476H275.773ZM299.407 490.156H296.559V477.476H299.407V490.156ZM296.384 474.183C296.384 473.746 296.52 473.383 296.794 473.094C297.075 472.804 297.473 472.66 297.989 472.66C298.505 472.66 298.903 472.804 299.184 473.094C299.466 473.383 299.606 473.746 299.606 474.183C299.606 474.613 299.466 474.972 299.184 475.261C298.903 475.543 298.505 475.683 297.989 475.683C297.473 475.683 297.075 475.543 296.794 475.261C296.52 474.972 296.384 474.613 296.384 474.183ZM307.561 477.476L307.643 478.941C308.58 477.808 309.811 477.242 311.334 477.242C313.975 477.242 315.319 478.754 315.366 481.777V490.156H312.518V481.941C312.518 481.136 312.342 480.543 311.991 480.16C311.647 479.769 311.08 479.574 310.291 479.574C309.143 479.574 308.287 480.094 307.725 481.133V490.156H304.877V477.476H307.561ZM323.707 490.156H320.859V477.476H323.707V490.156ZM320.684 474.183C320.684 473.746 320.82 473.383 321.094 473.094C321.375 472.804 321.773 472.66 322.289 472.66C322.805 472.66 323.203 472.804 323.484 473.094C323.766 473.383 323.906 473.746 323.906 474.183C323.906 474.613 323.766 474.972 323.484 475.261C323.203 475.543 322.805 475.683 322.289 475.683C321.773 475.683 321.375 475.543 321.094 475.261C320.82 474.972 320.684 474.613 320.684 474.183ZM331.896 477.476L331.978 478.801C332.869 477.761 334.087 477.242 335.634 477.242C337.33 477.242 338.49 477.89 339.115 479.187C340.037 477.89 341.334 477.242 343.005 477.242C344.404 477.242 345.443 477.629 346.123 478.402C346.81 479.176 347.162 480.316 347.177 481.824V490.156H344.33V481.906C344.33 481.101 344.154 480.511 343.802 480.136C343.451 479.761 342.869 479.574 342.056 479.574C341.408 479.574 340.877 479.75 340.462 480.101C340.056 480.445 339.771 480.898 339.607 481.461L339.619 490.156H336.771V481.812C336.732 480.32 335.97 479.574 334.486 479.574C333.345 479.574 332.537 480.039 332.06 480.969V490.156H329.212V477.476H331.896ZM366.087 488.117C366.798 488.117 367.388 487.91 367.856 487.496C368.325 487.082 368.575 486.57 368.606 485.961H371.29C371.259 486.75 371.013 487.488 370.552 488.176C370.091 488.855 369.466 489.394 368.677 489.793C367.888 490.191 367.036 490.39 366.122 490.39C364.348 490.39 362.942 489.816 361.903 488.668C360.864 487.519 360.345 485.933 360.345 483.91V483.617C360.345 481.687 360.86 480.144 361.891 478.988C362.923 477.824 364.329 477.242 366.11 477.242C367.618 477.242 368.845 477.683 369.79 478.566C370.743 479.441 371.243 480.594 371.29 482.023H368.606C368.575 481.297 368.325 480.699 367.856 480.23C367.395 479.761 366.805 479.527 366.087 479.527C365.165 479.527 364.454 479.863 363.954 480.535C363.454 481.199 363.2 482.211 363.192 483.57V484.027C363.192 485.402 363.438 486.429 363.93 487.109C364.43 487.781 365.149 488.117 366.087 488.117ZM378.87 490.156H376.022V477.476H378.87V490.156ZM375.846 474.183C375.846 473.746 375.983 473.383 376.256 473.094C376.537 472.804 376.936 472.66 377.452 472.66C377.967 472.66 378.366 472.804 378.647 473.094C378.928 473.383 379.069 473.746 379.069 474.183C379.069 474.613 378.928 474.972 378.647 475.261C378.366 475.543 377.967 475.683 377.452 475.683C376.936 475.683 376.537 475.543 376.256 475.261C375.983 474.972 375.846 474.613 375.846 474.183ZM387.41 490.156H384.562V472.156H387.41V490.156ZM395.951 490.156H393.103V472.156H395.951V490.156ZM409.144 488.914C408.308 489.898 407.12 490.39 405.581 490.39C404.206 490.39 403.163 489.988 402.452 489.183C401.749 488.379 401.398 487.215 401.398 485.691V477.476H404.245V485.656C404.245 487.265 404.913 488.07 406.249 488.07C407.632 488.07 408.566 487.574 409.05 486.582V477.476H411.898V490.156H409.214L409.144 488.914ZM419.876 477.476L419.958 478.801C420.848 477.761 422.067 477.242 423.614 477.242C425.309 477.242 426.47 477.89 427.095 479.187C428.016 477.89 429.313 477.242 430.985 477.242C432.384 477.242 433.423 477.629 434.102 478.402C434.79 479.176 435.141 480.316 435.157 481.824V490.156H432.309V481.906C432.309 481.101 432.134 480.511 431.782 480.136C431.43 479.761 430.848 479.574 430.036 479.574C429.388 479.574 428.856 479.75 428.442 480.101C428.036 480.445 427.751 480.898 427.587 481.461L427.598 490.156H424.751V481.812C424.712 480.32 423.95 479.574 422.466 479.574C421.325 479.574 420.516 480.039 420.04 480.969V490.156H417.192V477.476H419.876ZM454.066 488.117C454.777 488.117 455.367 487.91 455.836 487.496C456.305 487.082 456.555 486.57 456.586 485.961H459.27C459.238 486.75 458.992 487.488 458.531 488.176C458.07 488.855 457.445 489.394 456.656 489.793C455.867 490.191 455.016 490.39 454.102 490.39C452.328 490.39 450.922 489.816 449.883 488.668C448.844 487.519 448.324 485.933 448.324 483.91V483.617C448.324 481.687 448.84 480.144 449.871 478.988C450.902 477.824 452.309 477.242 454.09 477.242C455.598 477.242 456.824 477.683 457.77 478.566C458.723 479.441 459.223 480.594 459.27 482.023H456.586C456.555 481.297 456.305 480.699 455.836 480.23C455.375 479.761 454.785 479.527 454.066 479.527C453.145 479.527 452.434 479.863 451.934 480.535C451.434 481.199 451.18 482.211 451.172 483.57V484.027C451.172 485.402 451.418 486.429 451.91 487.109C452.41 487.781 453.129 488.117 454.066 488.117ZM466.849 490.156H464.002V477.476H466.849V490.156ZM463.826 474.183C463.826 473.746 463.962 473.383 464.236 473.094C464.517 472.804 464.916 472.66 465.431 472.66C465.947 472.66 466.345 472.804 466.627 473.094C466.908 473.383 467.048 473.746 467.048 474.183C467.048 474.613 466.908 474.972 466.627 475.261C466.345 475.543 465.947 475.683 465.431 475.683C464.916 475.683 464.517 475.543 464.236 475.261C463.962 474.972 463.826 474.613 463.826 474.183ZM475.39 490.156H472.542V472.156H475.39V490.156ZM483.93 490.156H481.083V472.156H483.93V490.156ZM497.123 488.914C496.287 489.898 495.1 490.39 493.561 490.39C492.186 490.39 491.143 489.988 490.432 489.183C489.729 488.379 489.377 487.215 489.377 485.691V477.476H492.225V485.656C492.225 487.265 492.893 488.07 494.229 488.07C495.612 488.07 496.545 487.574 497.03 486.582V477.476H499.877V490.156H497.194L497.123 488.914ZM507.855 477.476L507.938 478.801C508.828 477.761 510.047 477.242 511.594 477.242C513.289 477.242 514.449 477.89 515.074 479.187C515.996 477.89 517.293 477.242 518.965 477.242C520.363 477.242 521.402 477.629 522.082 478.402C522.77 479.176 523.121 480.316 523.137 481.824V490.156H520.289V481.906C520.289 481.101 520.113 480.511 519.762 480.136C519.41 479.761 518.828 479.574 518.016 479.574C517.367 479.574 516.836 479.75 516.422 480.101C516.016 480.445 515.73 480.898 515.566 481.461L515.578 490.156H512.73V481.812C512.691 480.32 511.93 479.574 510.445 479.574C509.305 479.574 508.496 480.039 508.02 480.969V490.156H505.172V477.476H507.855ZM544.413 490.156C544.288 489.914 544.179 489.519 544.085 488.972C543.179 489.918 542.07 490.39 540.757 490.39C539.484 490.39 538.445 490.027 537.64 489.301C536.835 488.574 536.433 487.676 536.433 486.605C536.433 485.254 536.933 484.219 537.933 483.5C538.941 482.773 540.378 482.41 542.245 482.41H543.991V481.578C543.991 480.922 543.808 480.398 543.441 480.008C543.073 479.609 542.515 479.41 541.765 479.41C541.116 479.41 540.585 479.574 540.171 479.902C539.757 480.222 539.55 480.633 539.55 481.133H536.702C536.702 480.437 536.933 479.789 537.394 479.187C537.855 478.578 538.48 478.101 539.269 477.758C540.066 477.414 540.952 477.242 541.929 477.242C543.413 477.242 544.597 477.617 545.48 478.367C546.362 479.109 546.816 480.156 546.839 481.508V487.226C546.839 488.367 546.999 489.277 547.32 489.957V490.156H544.413ZM541.284 488.105C541.847 488.105 542.374 487.969 542.866 487.695C543.366 487.422 543.741 487.054 543.991 486.594V484.203H542.456C541.402 484.203 540.609 484.386 540.077 484.754C539.546 485.121 539.28 485.64 539.28 486.312C539.28 486.859 539.46 487.297 539.82 487.625C540.187 487.945 540.675 488.105 541.284 488.105ZM554.864 477.476L554.946 478.941C555.884 477.808 557.114 477.242 558.638 477.242C561.278 477.242 562.622 478.754 562.669 481.777V490.156H559.821V481.941C559.821 481.136 559.645 480.543 559.294 480.16C558.95 479.769 558.384 479.574 557.595 479.574C556.446 479.574 555.591 480.094 555.028 481.133V490.156H552.18V477.476H554.864ZM571.01 490.156H568.162V477.476H571.01V490.156ZM567.987 474.183C567.987 473.746 568.123 473.383 568.397 473.094C568.678 472.804 569.077 472.66 569.592 472.66C570.108 472.66 570.506 472.804 570.787 473.094C571.069 473.383 571.209 473.746 571.209 474.183C571.209 474.613 571.069 474.972 570.787 475.261C570.506 475.543 570.108 475.683 569.592 475.683C569.077 475.683 568.678 475.543 568.397 475.261C568.123 474.972 567.987 474.613 567.987 474.183ZM579.199 477.476L579.281 478.801C580.172 477.761 581.391 477.242 582.938 477.242C584.633 477.242 585.793 477.89 586.418 479.187C587.34 477.89 588.637 477.242 590.309 477.242C591.707 477.242 592.746 477.629 593.426 478.402C594.113 479.176 594.465 480.316 594.48 481.824V490.156H591.633V481.906C591.633 481.101 591.457 480.511 591.105 480.136C590.754 479.761 590.172 479.574 589.359 479.574C588.711 479.574 588.18 479.75 587.766 480.101C587.359 480.445 587.074 480.898 586.91 481.461L586.922 490.156H584.074V481.812C584.035 480.32 583.273 479.574 581.789 479.574C580.648 479.574 579.84 480.039 579.363 480.969V490.156H576.516V477.476H579.199ZM214.455 520.156C214.33 519.914 214.221 519.519 214.127 518.972C213.221 519.918 212.112 520.39 210.799 520.39C209.526 520.39 208.487 520.027 207.682 519.301C206.877 518.574 206.475 517.676 206.475 516.605C206.475 515.254 206.975 514.219 207.975 513.5C208.983 512.773 210.42 512.41 212.288 512.41H214.034V511.578C214.034 510.922 213.85 510.398 213.483 510.008C213.116 509.609 212.557 509.41 211.807 509.41C211.159 509.41 210.627 509.574 210.213 509.902C209.799 510.222 209.592 510.633 209.592 511.133H206.745C206.745 510.437 206.975 509.789 207.436 509.187C207.897 508.578 208.522 508.101 209.311 507.758C210.108 507.414 210.995 507.242 211.971 507.242C213.455 507.242 214.639 507.617 215.522 508.367C216.405 509.109 216.858 510.156 216.881 511.508V517.226C216.881 518.367 217.041 519.277 217.362 519.957V520.156H214.455ZM211.327 518.105C211.889 518.105 212.416 517.969 212.909 517.695C213.409 517.422 213.784 517.054 214.034 516.594V514.203H212.498C211.444 514.203 210.651 514.386 210.12 514.754C209.588 515.121 209.323 515.64 209.323 516.312C209.323 516.859 209.502 517.297 209.862 517.625C210.229 517.945 210.717 518.105 211.327 518.105ZM221.73 513.722C221.73 511.769 222.184 510.203 223.09 509.023C223.996 507.836 225.211 507.242 226.734 507.242C228.078 507.242 229.164 507.711 229.992 508.648V502.156H232.84V520.156H230.262L230.121 518.844C229.27 519.875 228.133 520.39 226.711 520.39C225.227 520.39 224.023 519.793 223.102 518.597C222.188 517.402 221.73 515.777 221.73 513.722ZM224.578 513.969C224.578 515.258 224.824 516.265 225.316 516.992C225.816 517.711 226.523 518.07 227.438 518.07C228.602 518.07 229.453 517.551 229.992 516.511V511.097C229.469 510.082 228.625 509.574 227.461 509.574C226.539 509.574 225.828 509.941 225.328 510.676C224.828 511.402 224.578 512.5 224.578 513.969ZM241.24 520.156H238.392V507.476H241.24V520.156ZM238.216 504.183C238.216 503.746 238.353 503.383 238.627 503.094C238.908 502.804 239.306 502.66 239.822 502.66C240.338 502.66 240.736 502.804 241.017 503.094C241.298 503.383 241.439 503.746 241.439 504.183C241.439 504.613 241.298 504.972 241.017 505.261C240.736 505.543 240.338 505.683 239.822 505.683C239.306 505.683 238.908 505.543 238.627 505.261C238.353 504.972 238.216 504.613 238.216 504.183ZM257.855 513.945C257.855 515.906 257.409 517.472 256.519 518.644C255.628 519.808 254.433 520.39 252.933 520.39C251.542 520.39 250.429 519.933 249.593 519.019V525.031H246.745V507.476H249.37L249.488 508.765C250.323 507.75 251.46 507.242 252.898 507.242C254.445 507.242 255.655 507.82 256.53 508.976C257.413 510.125 257.855 511.722 257.855 513.769V513.945ZM255.019 513.699C255.019 512.433 254.765 511.429 254.257 510.687C253.757 509.945 253.038 509.574 252.101 509.574C250.937 509.574 250.101 510.054 249.593 511.015V516.64C250.109 517.625 250.952 518.117 252.124 518.117C253.03 518.117 253.738 517.754 254.245 517.027C254.761 516.293 255.019 515.183 255.019 513.699ZM265.704 520.156H262.856V507.476H265.704V520.156ZM262.68 504.183C262.68 503.746 262.817 503.383 263.091 503.094C263.372 502.804 263.77 502.66 264.286 502.66C264.802 502.66 265.2 502.804 265.481 503.094C265.763 503.383 265.903 503.746 265.903 504.183C265.903 504.613 265.763 504.972 265.481 505.261C265.2 505.543 264.802 505.683 264.286 505.683C263.77 505.683 263.372 505.543 263.091 505.261C262.817 504.972 262.68 504.613 262.68 504.183ZM278.323 516.711C278.323 516.203 278.112 515.816 277.69 515.551C277.276 515.285 276.584 515.051 275.616 514.847C274.647 514.644 273.838 514.386 273.19 514.074C271.768 513.386 271.057 512.39 271.057 511.086C271.057 509.992 271.518 509.078 272.44 508.344C273.362 507.609 274.534 507.242 275.955 507.242C277.471 507.242 278.694 507.617 279.623 508.367C280.561 509.117 281.03 510.09 281.03 511.285H278.182C278.182 510.738 277.979 510.285 277.573 509.926C277.166 509.558 276.627 509.375 275.955 509.375C275.33 509.375 274.819 509.519 274.42 509.808C274.03 510.097 273.834 510.484 273.834 510.969C273.834 511.406 274.018 511.746 274.385 511.988C274.752 512.23 275.495 512.476 276.612 512.726C277.729 512.969 278.604 513.261 279.237 513.605C279.877 513.941 280.35 514.347 280.655 514.824C280.967 515.301 281.123 515.879 281.123 516.558C281.123 517.699 280.651 518.625 279.705 519.336C278.76 520.039 277.522 520.39 275.991 520.39C274.952 520.39 274.026 520.203 273.213 519.828C272.401 519.453 271.768 518.937 271.315 518.281C270.862 517.625 270.635 516.918 270.635 516.16H273.401C273.44 516.832 273.694 517.351 274.163 517.719C274.631 518.078 275.252 518.258 276.026 518.258C276.776 518.258 277.346 518.117 277.737 517.836C278.127 517.547 278.323 517.172 278.323 516.711ZM289.043 520.156H286.195V507.476H289.043V520.156ZM286.02 504.183C286.02 503.746 286.156 503.383 286.43 503.094C286.711 502.804 287.109 502.66 287.625 502.66C288.141 502.66 288.539 502.804 288.82 503.094C289.102 503.383 289.242 503.746 289.242 504.183C289.242 504.613 289.102 504.972 288.82 505.261C288.539 505.543 288.141 505.683 287.625 505.683C287.109 505.683 286.711 505.543 286.43 505.261C286.156 504.972 286.02 504.613 286.02 504.183ZM299.763 518.117C300.474 518.117 301.064 517.91 301.533 517.496C302.002 517.082 302.252 516.57 302.283 515.961H304.966C304.935 516.75 304.689 517.488 304.228 518.176C303.767 518.855 303.142 519.394 302.353 519.793C301.564 520.191 300.713 520.39 299.798 520.39C298.025 520.39 296.619 519.816 295.58 518.668C294.541 517.519 294.021 515.933 294.021 513.91V513.617C294.021 511.687 294.537 510.144 295.568 508.988C296.599 507.824 298.005 507.242 299.787 507.242C301.295 507.242 302.521 507.683 303.466 508.566C304.42 509.441 304.92 510.594 304.966 512.023H302.283C302.252 511.297 302.002 510.699 301.533 510.23C301.072 509.761 300.482 509.527 299.763 509.527C298.841 509.527 298.13 509.863 297.63 510.535C297.13 511.199 296.877 512.211 296.869 513.57V514.027C296.869 515.402 297.115 516.429 297.607 517.109C298.107 517.781 298.826 518.117 299.763 518.117ZM312.546 520.156H309.698V507.476H312.546V520.156ZM309.523 504.183C309.523 503.746 309.659 503.383 309.933 503.094C310.214 502.804 310.613 502.66 311.128 502.66C311.644 502.66 312.042 502.804 312.323 503.094C312.605 503.383 312.745 503.746 312.745 504.183C312.745 504.613 312.605 504.972 312.323 505.261C312.042 505.543 311.644 505.683 311.128 505.683C310.613 505.683 310.214 505.543 309.933 505.261C309.659 504.972 309.523 504.613 309.523 504.183ZM320.7 507.476L320.782 508.941C321.72 507.808 322.95 507.242 324.473 507.242C327.114 507.242 328.458 508.754 328.505 511.777V520.156H325.657V511.941C325.657 511.136 325.481 510.543 325.13 510.16C324.786 509.769 324.22 509.574 323.43 509.574C322.282 509.574 321.427 510.094 320.864 511.133V520.156H318.016V507.476H320.7ZM333.319 513.722C333.319 511.754 333.78 510.183 334.702 509.011C335.631 507.832 336.862 507.242 338.393 507.242C339.838 507.242 340.975 507.746 341.803 508.754L341.932 507.476H344.498V519.769C344.498 521.433 343.979 522.746 342.94 523.707C341.909 524.668 340.514 525.148 338.756 525.148C337.827 525.148 336.916 524.953 336.026 524.562C335.143 524.179 334.471 523.676 334.01 523.051L335.358 521.34C336.233 522.379 337.311 522.898 338.592 522.898C339.538 522.898 340.284 522.64 340.83 522.125C341.377 521.617 341.651 520.867 341.651 519.875V519.019C340.83 519.933 339.737 520.39 338.37 520.39C336.885 520.39 335.67 519.801 334.725 518.621C333.788 517.441 333.319 515.808 333.319 513.722ZM336.155 513.969C336.155 515.242 336.413 516.246 336.928 516.98C337.452 517.707 338.174 518.07 339.096 518.07C340.245 518.07 341.096 517.578 341.651 516.594V511.015C341.112 510.054 340.268 509.574 339.12 509.574C338.182 509.574 337.452 509.945 336.928 510.687C336.413 511.429 336.155 512.523 336.155 513.969ZM361.24 520.156H358.392V507.476H361.24V520.156ZM358.216 504.183C358.216 503.746 358.353 503.383 358.627 503.094C358.908 502.804 359.306 502.66 359.822 502.66C360.338 502.66 360.736 502.804 361.017 503.094C361.298 503.383 361.439 503.746 361.439 504.183C361.439 504.613 361.298 504.972 361.017 505.261C360.736 505.543 360.338 505.683 359.822 505.683C359.306 505.683 358.908 505.543 358.627 505.261C358.353 504.972 358.216 504.613 358.216 504.183ZM369.394 507.476L369.476 508.941C370.413 507.808 371.644 507.242 373.167 507.242C375.808 507.242 377.152 508.754 377.198 511.777V520.156H374.351V511.941C374.351 511.136 374.175 510.543 373.823 510.16C373.48 509.769 372.913 509.574 372.124 509.574C370.976 509.574 370.12 510.094 369.558 511.133V520.156H366.71V507.476H369.394ZM387.72 518.117C388.43 518.117 389.02 517.91 389.489 517.496C389.958 517.082 390.208 516.57 390.239 515.961H392.923C392.891 516.75 392.645 517.488 392.184 518.176C391.723 518.855 391.098 519.394 390.309 519.793C389.52 520.191 388.669 520.39 387.755 520.39C385.981 520.39 384.575 519.816 383.536 518.668C382.497 517.519 381.977 515.933 381.977 513.91V513.617C381.977 511.687 382.493 510.144 383.524 508.988C384.555 507.824 385.962 507.242 387.743 507.242C389.251 507.242 390.477 507.683 391.423 508.566C392.376 509.441 392.876 510.594 392.923 512.023H390.239C390.208 511.297 389.958 510.699 389.489 510.23C389.028 509.761 388.438 509.527 387.72 509.527C386.798 509.527 386.087 509.863 385.587 510.535C385.087 511.199 384.833 512.211 384.825 513.57V514.027C384.825 515.402 385.071 516.429 385.563 517.109C386.063 517.781 386.782 518.117 387.72 518.117ZM400.502 520.156H397.655V507.476H400.502V520.156ZM397.479 504.183C397.479 503.746 397.616 503.383 397.889 503.094C398.17 502.804 398.569 502.66 399.084 502.66C399.6 502.66 399.998 502.804 400.28 503.094C400.561 503.383 400.702 503.746 400.702 504.183C400.702 504.613 400.561 504.972 400.28 505.261C399.998 505.543 399.6 505.683 399.084 505.683C398.569 505.683 398.17 505.543 397.889 505.261C397.616 504.972 397.479 504.613 397.479 504.183ZM405.48 513.722C405.48 511.769 405.934 510.203 406.84 509.023C407.746 507.836 408.961 507.242 410.484 507.242C411.828 507.242 412.914 507.711 413.742 508.648V502.156H416.59V520.156H414.012L413.871 518.844C413.02 519.875 411.883 520.39 410.461 520.39C408.977 520.39 407.773 519.793 406.852 518.597C405.938 517.402 405.48 515.777 405.48 513.722ZM408.328 513.969C408.328 515.258 408.574 516.265 409.066 516.992C409.566 517.711 410.273 518.07 411.188 518.07C412.352 518.07 413.203 517.551 413.742 516.511V511.097C413.219 510.082 412.375 509.574 411.211 509.574C410.289 509.574 409.578 509.941 409.078 510.676C408.578 511.402 408.328 512.5 408.328 513.969ZM424.99 520.156H422.142V507.476H424.99V520.156ZM421.966 504.183C421.966 503.746 422.103 503.383 422.377 503.094C422.658 502.804 423.056 502.66 423.572 502.66C424.088 502.66 424.486 502.804 424.767 503.094C425.048 503.383 425.189 503.746 425.189 504.183C425.189 504.613 425.048 504.972 424.767 505.261C424.486 505.543 424.088 505.683 423.572 505.683C423.056 505.683 422.658 505.543 422.377 505.261C422.103 504.972 421.966 504.613 421.966 504.183ZM429.968 513.722C429.968 511.769 430.421 510.203 431.327 509.023C432.234 507.836 433.448 507.242 434.972 507.242C436.316 507.242 437.402 507.711 438.23 508.648V502.156H441.077V520.156H438.499L438.359 518.844C437.507 519.875 436.37 520.39 434.948 520.39C433.464 520.39 432.261 519.793 431.339 518.597C430.425 517.402 429.968 515.777 429.968 513.722ZM432.816 513.969C432.816 515.258 433.062 516.265 433.554 516.992C434.054 517.711 434.761 518.07 435.675 518.07C436.839 518.07 437.691 517.551 438.23 516.511V511.097C437.706 510.082 436.862 509.574 435.698 509.574C434.777 509.574 434.066 509.941 433.566 510.676C433.066 511.402 432.816 512.5 432.816 513.969ZM454.13 518.914C453.294 519.898 452.106 520.39 450.567 520.39C449.192 520.39 448.149 519.988 447.438 519.183C446.735 518.379 446.384 517.215 446.384 515.691V507.476H449.231V515.656C449.231 517.265 449.899 518.07 451.235 518.07C452.618 518.07 453.552 517.574 454.036 516.582V507.476H456.884V520.156H454.2L454.13 518.914ZM464.827 507.476L464.909 508.941C465.846 507.808 467.077 507.242 468.6 507.242C471.241 507.242 472.584 508.754 472.631 511.777V520.156H469.784V511.941C469.784 511.136 469.608 510.543 469.256 510.16C468.913 509.769 468.346 509.574 467.557 509.574C466.409 509.574 465.553 510.094 464.991 511.133V520.156H462.143V507.476H464.827ZM481.512 504.394V507.476H483.75V509.586H481.512V516.664C481.512 517.148 481.605 517.5 481.793 517.719C481.988 517.929 482.332 518.035 482.824 518.035C483.152 518.035 483.484 517.996 483.82 517.918V520.121C483.172 520.301 482.547 520.39 481.945 520.39C479.758 520.39 478.664 519.183 478.664 516.769V509.586H476.578V507.476H478.664V504.394H481.512ZM490.111 517.156C490.642 517.156 491.052 517.308 491.341 517.613C491.63 517.91 491.775 518.285 491.775 518.738C491.775 519.183 491.63 519.554 491.341 519.851C491.052 520.14 490.642 520.285 490.111 520.285C489.603 520.285 489.201 520.14 488.904 519.851C488.607 519.562 488.459 519.191 488.459 518.738C488.459 518.285 488.603 517.91 488.892 517.613C489.181 517.308 489.587 517.156 490.111 517.156Z" fill="white"/>
<path d="M722.999 -31.5999C721.453 -15.8076 715.656 -3.86706 705.994 4.60687C697.105 12.3104 686.283 20.014 674.302 28.488C658.456 51.9839 641.451 74.3242 623.286 96.2794C605.894 118.235 587.729 139.805 568.791 161.76C550.626 182.945 532.461 204.515 514.297 227.24C496.905 249.195 481.059 271.921 466.759 296.187C449.367 308.898 433.907 323.15 420.38 338.942C406.853 353.964 393.713 369.756 380.572 386.319C367.818 402.111 355.064 418.674 341.924 436.007C329.943 452.57 317.189 468.362 303.275 483.384C307.913 501.487 315.643 515.739 327.237 526.139C338.445 536.539 351.199 546.553 364.726 555.413C378.253 563.501 391.394 572.746 404.534 582.375C417.675 592.005 427.337 605.101 433.907 620.893C456.71 624.745 478.353 630.522 499.61 638.996C521.64 646.7 544.056 650.167 567.632 650.167C585.023 650.167 601.642 645.544 617.488 636.685C624.445 638.226 631.015 640.922 637.972 644.774C645.702 648.626 653.432 650.552 661.934 650.552C668.891 650.552 675.461 647.085 682.418 640.537C683.964 642.848 685.51 645.93 687.056 649.396C688.602 652.478 691.307 654.018 695.172 654.018C696.718 654.018 697.877 654.018 698.65 654.018C700.196 653.248 701.356 652.863 702.129 652.863V670.966C702.129 677.899 702.515 684.447 703.288 691.381C704.061 697.544 705.607 703.706 707.926 710.64C701.742 710.64 697.104 711.795 693.24 714.106L683.191 721.039C680.099 723.351 676.234 725.276 671.983 726.817C667.345 728.358 661.548 728.358 653.818 726.817C649.18 727.588 646.088 729.899 644.929 733.75C644.156 737.602 641.837 740.684 637.972 742.609C632.561 746.461 625.604 748.387 616.329 748.387C608.213 748.387 600.483 750.313 593.526 754.165L554.878 756.476C542.124 757.246 529.37 757.631 516.229 757.631C508.499 757.631 499.61 757.631 489.175 757.631C478.74 756.861 467.918 756.091 457.483 755.32C447.048 753.78 436.613 752.239 426.951 750.698C417.288 748.387 408.786 745.691 402.216 742.995C377.48 731.054 353.132 716.032 329.556 697.929C305.98 679.825 283.564 662.107 261.535 644.774L243.37 628.982C237.186 623.589 231.002 618.967 224.045 614.345C223.272 613.575 221.34 613.189 218.248 613.189C214.383 613.189 210.905 613.96 208.199 615.5C205.881 617.041 203.175 617.812 200.083 617.812C196.991 617.812 195.445 616.656 195.445 614.345C171.87 637.07 150.227 660.952 129.743 686.758L68.6779 763.409C68.6779 769.572 70.2239 774.194 73.3158 778.046L82.2049 788.06C85.2968 791.142 88.0022 794.609 90.3211 798.075C93.413 801.927 94.959 806.549 94.959 812.712C94.959 817.334 94.5725 820.801 93.7995 823.882C86.8428 826.193 79.113 827.734 69.8374 828.504C60.9482 829.275 51.286 830.43 41.6239 831.971C32.7347 834.282 24.232 836.978 16.8888 840.06C9.15903 843.911 4.13472 849.304 1.04283 857.008C-4.36798 855.467 -9.00581 853.926 -13.6437 852.385C-17.5085 850.845 -22.1463 850.46 -28.3301 851.23C-34.5139 843.526 -40.3112 836.208 -46.495 828.504C-53.4517 820.416 -59.249 811.557 -64.6598 802.697C-65.4328 797.305 -65.8193 792.683 -65.8193 788.06C-66.9787 781.127 -67.3652 775.735 -67.3652 770.728C-67.3652 753.394 -64.6598 737.987 -59.249 724.506C-53.8382 710.254 -48.0409 695.618 -41.0842 680.596C-28.3301 674.433 -16.7355 668.27 -5.91393 661.337C5.29417 653.633 13.0239 642.848 16.8888 628.597C26.5509 627.826 34.6671 624.745 40.8509 619.737C47.8077 613.575 53.6049 607.412 59.0158 600.479C65.1995 593.545 70.9968 587.768 77.1806 582.375C83.3644 576.983 91.4806 573.901 101.916 572.36C101.916 570.82 101.529 569.279 100.756 567.738C100.756 566.198 100.756 564.657 100.756 563.116C100.756 557.724 101.916 554.257 104.235 551.946C106.554 548.865 109.259 546.553 112.351 545.013C116.216 542.702 119.694 540.776 122.399 539.235C126.264 537.694 129.356 534.998 131.289 531.146C128.197 523.058 124.718 514.969 121.24 507.265C118.148 499.562 114.283 492.628 110.032 485.695C102.302 474.525 94.5725 463.355 86.0698 452.955L61.3347 421.37C57.4698 415.978 52.832 411.741 46.6482 407.889C41.2374 403.267 36.986 398.26 33.1212 392.097C29.2563 385.934 26.9374 379.386 26.1644 371.682C25.3915 363.979 23.459 357.431 20.3671 351.268C16.5023 343.564 11.8644 337.016 5.68066 330.853C0.269852 323.92 -2.43555 315.831 -2.43555 306.202C-2.43555 300.809 -1.27608 296.187 1.04283 291.565C-7.07338 283.476 -13.2572 273.462 -17.122 262.292C-20.9869 250.351 -22.9193 238.41 -22.9193 227.24C-22.9193 216.84 -21.3734 206.055 -18.2815 195.656C-15.1896 184.485 -10.1653 174.086 -3.59501 165.226H6.06715C9.93201 165.226 11.8644 164.071 11.8644 161.76C16.5023 164.841 21.1401 167.538 26.5509 169.849C32.7347 172.16 35.8266 176.397 36.5996 182.174C43.5563 182.945 50.1266 184.1 57.0833 185.641L77.5671 190.263C89.5482 208.366 100.756 226.855 110.418 245.729C120.081 264.603 130.129 283.476 139.791 301.965C150.227 320.839 161.435 339.327 172.643 357.431C183.851 375.534 196.605 392.482 211.291 408.274C222.499 403.652 232.548 397.104 240.664 387.86C248.78 379.001 256.51 369.371 263.467 359.742C271.197 350.112 278.926 340.483 287.429 331.624C295.545 322.765 305.594 315.831 316.802 311.209C316.029 310.439 315.643 309.283 315.643 307.743C315.643 303.891 316.802 301.195 319.121 299.654C322.213 297.343 322.986 293.106 321.44 287.328C336.513 276.928 350.426 265.373 363.18 253.432C375.934 241.492 385.21 225.7 390.234 206.055H406.08C424.245 181.789 442.41 157.908 460.575 134.027C479.513 109.761 500.769 88.1907 523.959 68.5466V52.7542C535.94 45.0507 546.761 36.5767 555.651 26.9472C564.54 16.5474 573.429 5.76241 581.545 -4.63741C589.661 -15.8076 597.778 -27.363 605.507 -38.5332C613.623 -49.7033 623.286 -60.1032 633.721 -68.9623C641.451 -65.1105 649.18 -62.4142 657.683 -60.8735C665.799 -59.3328 673.915 -57.4069 681.645 -55.0958C689.761 -52.7848 697.491 -49.7033 704.448 -46.2367C711.404 -43.5405 717.588 -38.5332 722.999 -31.5999Z" fill="white" fill-opacity="0.23"/>
</g>
</svg>
